<?xml version="1.0" standalone="no"?>
<!DOCTYPE svg PUBLIC "-//W3C//DTD SVG 1.1//EN" "http://www.w3.org/Graphics/SVG/1.1/DTD/svg11.dtd" >
<svg>
<metadata>
Created by FontForge 20110222 at Fri Jan 16 00:00:06 2015
 By deploy user
Copyright (c) 1992
</metadata>
<defs>
<font id="Helvetica_cyr-Oblique" horiz-adv-x="556" >
  <font-face 
    font-family="Helvetica"
    font-weight="400"
    font-style="oblique"
    font-stretch="normal"
    units-per-em="1000"
    panose-1="0 0 0 0 0 0 0 0 0 0"
    ascent="800"
    descent="-200"
    x-height="523"
    cap-height="718"
    bbox="-93 -220 1081 901"
    underline-thickness="20"
    underline-position="-123"
    unicode-range="U+0020-2122"
  />
<missing-glyph horiz-adv-x="780" 
d="M48 0v780h684v-780h-684zM684 48v684h-588v-684h588z" />
    <glyph glyph-name=".notdef" horiz-adv-x="780" 
d="M48 0v780h684v-780h-684zM684 48v684h-588v-684h588z" />
    <glyph glyph-name=".null" horiz-adv-x="0" 
 />
    <glyph glyph-name="nonmarkingreturn" horiz-adv-x="278" 
 />
    <glyph glyph-name="space" unicode=" " horiz-adv-x="278" 
 />
    <glyph glyph-name="exclam" unicode="!" horiz-adv-x="278" 
d="M209 102l-22 -102h-97l22 102h97zM199 171h-49l42 310l51 237h97l-51 -237z" />
    <glyph glyph-name="quotedbl" unicode="&#x22;" horiz-adv-x="355" 
d="M168 463l55 255h73l-55 -255h-73zM310 463l55 255h73l-55 -255h-73z" />
    <glyph glyph-name="numbersign" unicode="#" 
d="M433 210l-74 -210h-66l74 210h-125l-74 -210h-66l74 210h-103l22 63h103l49 142h-103l23 63h103l73 210h67l-73 -210h124l73 210h67l-73 -210h103l-23 -63h-103l-50 -142h103l-22 -63h-103zM438 415h-124l-50 -142h125z" />
    <glyph glyph-name="dollar" unicode="$" 
d="M340 409l49 229q-55 0 -94.5 -33.5t-49.5 -82.5q-3 -12 -3 -24q0 -37 30 -61q26 -21 68 -28zM365 308l-54 -254q64 0 108 38q39 34 51 88q3 14 3 27q0 31 -15.5 53t-41.5 31zM614 521h-85q0 62 -23 85t-70 32l-51 -239q101 -31 133 -53q50 -34 50 -98q0 -23 -6 -52
q-24 -114 -115 -171q-70 -44 -151 -44l-20 -96h-47l20 96q-84 0 -129 35q-51 40 -51 124q0 27 1.5 38.5t6.5 34.5h88q-5 -34 -5 -42.5v-14.5q0 -48 23 -70t81 -32l57 265q-104 26 -140 64q-31 33 -31 86q0 21 6 47q17 81 88 138t160 57l14 64h47l-14 -64q60 0 104 -27
q63 -39 63 -120v-25q-3 -12 -4 -18z" />
    <glyph glyph-name="percent" unicode="%" horiz-adv-x="889" 
d="M151 526q15 71 75 120t132 49q60 0 99 -38t39 -96v-17q-3 -12 -4 -18q-15 -72 -75 -121.5t-132 -49.5q-61 0 -99.5 37.5t-38.5 96.5v22q3 11 4 15zM221 526q-3 -12 -3 -24q0 -35 23 -56t58 -21q43 0 78.5 29.5t44.5 71.5q2 7 2 22q0 34 -22.5 55.5t-58.5 21.5
q-43 0 -78.5 -29t-43.5 -70zM544 164q15 71 75 120t132 49q60 0 99 -38t39 -96v-17q-3 -12 -4 -18q-15 -71 -75 -121t-131 -50q-61 0 -100 38t-39 97v14.5t4 21.5zM614 164q-3 -12 -3 -24q0 -35 23 -56t58 -21q43 0 78.5 29.5t44.5 71.5q2 7 2 22q0 34 -22.5 55.5
t-58.5 21.5q-43 0 -78.5 -29t-43.5 -70zM818 703l-549 -722h-54l548 722h55z" />
    <glyph glyph-name="ampersand" unicode="&#x26;" horiz-adv-x="667" 
d="M447 141l-120 198q-60 -34 -83 -51q-60 -45 -74 -108q-3 -14 -3 -26q0 -47 40 -73q31 -20 67 -20q98 0 173 80zM379 439q59 35 84.5 63.5t32.5 60.5q2 6 2 12v9q0 31 -19.5 44.5t-43.5 13.5q-48 0 -76 -30q-18 -20 -24 -48q-2 -12 -2 -18q0 -28 16 -61q10 -21 30 -46z
M550 155l95 -155h-114l-50 82q-50 -47 -97 -69q-59 -28 -132 -28q-98 0 -142 52q-33 39 -33 99q0 10 0.5 17t3.5 20q16 75 57 121q46 51 153 105q-18 30 -28 49q-19 37 -19 71q0 16 5 39q13 66 67 111q58 49 137 49q67 0 102 -35q31 -31 31 -80q0 -8 -1.5 -18t-2.5 -15
q-14 -67 -69 -118q-32 -30 -100 -70l98 -156q19 34 29 54t24 58h83q-12 -39 -35 -84q-27 -52 -62 -99z" />
    <glyph glyph-name="quotesingle" unicode="'" horiz-adv-x="191" 
d="M157 463l55 255h73l-55 -255h-73z" />
    <glyph glyph-name="parenleft" unicode="(" horiz-adv-x="333" 
d="M393 733h61q-74 -100 -104 -146q-49 -76 -79 -150q-35 -85 -59 -200q-7 -32 -11 -72t-4 -68q0 -72 16 -149q11 -52 42 -155h-59q-43 95 -63 164q-25 86 -25 167q0 62 15 137q28 128 96 244q62 106 174 228z" />
    <glyph glyph-name="parenright" unicode=")" horiz-adv-x="333" 
d="M52 -207h-61q75 101 104 146q47 73 78 150q35 86 59 200q7 32 11 72t4 68q0 56 -9.5 115.5t-47.5 188.5h59q43 -94 63 -163q25 -86 25 -166q0 -66 -16 -139q-27 -128 -95 -244q-62 -105 -174 -228z" />
    <glyph glyph-name="asterisk" unicode="*" horiz-adv-x="389" 
d="M165 591l31 55l97 -38l24 110h60l-24 -110l113 38l9 -55l-116 -34l48 -92l-56 -34l-45 94l-85 -94l-42 34l86 92z" />
    <glyph glyph-name="plus" unicode="+" horiz-adv-x="584" 
d="M317 289l46 216h73l-46 -216h216l-15 -73h-216l-46 -216h-73l46 216h-217l15 73h217z" />
    <glyph glyph-name="comma" unicode="," horiz-adv-x="278" 
d="M87 0l23 106h104l-21 -98q-18 -86 -72 -127q-30 -23 -65 -28l10 46q29 3 49 34q16 25 25 67h-53z" />
    <glyph glyph-name="hyphen" unicode="-" horiz-adv-x="333" 
d="M357 322l-19 -90h-245l19 90h245z" />
    <glyph glyph-name="period" unicode="." horiz-adv-x="278" 
d="M214 106l-23 -106h-104l23 106h104z" />
    <glyph glyph-name="slash" unicode="/" horiz-adv-x="278" 
d="M452 737l-406 -756h-67l407 756h66z" />
    <glyph glyph-name="zero" unicode="0" 
d="M498 342q17 80 17 137q0 70 -25.5 107.5t-78.5 37.5q-74 0 -126.5 -74t-80.5 -208q-17 -80 -17 -138q0 -70 25.5 -107t78.5 -37q74 0 126 73.5t81 208.5zM592 342q-19 -88 -51 -158q-42 -92 -101 -142q-71 -61 -166 -61q-98 0 -143 67q-37 56 -37 154q0 39 3.5 68
t12.5 72q18 87 51 158q42 92 100 142q71 61 166 61q99 0 144 -68q37 -56 37 -154q0 -38 -3.5 -67t-12.5 -72z" />
    <glyph glyph-name="one" unicode="1" 
d="M508 703l-149 -703h-94l106 499h-164l15 70q92 0 132 23q47 27 85 111h69z" />
    <glyph glyph-name="two" unicode="2" 
d="M228 451h-88q32 150 138 212q68 40 158 40q81 0 131 -43t50 -118q0 -11 -1 -24t-4 -25q-18 -86 -85 -144q-46 -40 -153 -91l-82 -40q-71 -35 -111 -77q-29 -30 -38 -58h382l-18 -83h-481q25 102 86 173q53 61 138 106l105 54q97 50 125 82.5t39 81.5q3 14 3 28
q0 42 -25 68q-30 31 -90 31q-67 0 -111 -41t-68 -132z" />
    <glyph glyph-name="three" unicode="3" 
d="M293 324l16 76l46 -2q58 0 97 24q48 29 61 91q3 11 3 24q0 36 -21 58q-28 29 -88 29q-81 0 -126 -57q-25 -32 -43 -94h-86q19 95 76 154q73 76 199 76q87 0 135 -39.5t48 -105.5q0 -17 -5 -40q-13 -62 -52 -102q-31 -32 -69 -43q42 -16 64.5 -45t22.5 -75q0 -10 -1 -22
t-4 -24q-20 -95 -92 -156q-83 -70 -209 -70q-40 0 -68.5 7.5t-54.5 23.5q-35 21 -51 57.5t-16 81.5q0 11 0.5 21t4.5 43h91q-4 -23 -4.5 -33.5t-0.5 -16.5q0 -48 23 -73q30 -32 99 -32q68 0 118 37t64 99q4 17 4 35q0 56 -50 79q-33 15 -91 15z" />
    <glyph glyph-name="four" unicode="4" 
d="M559 171h-103l-36 -171h-88l36 171h-307l19 86l416 446h73l-96 -456h103zM159 247h226l67 319z" />
    <glyph glyph-name="five" unicode="5" 
d="M305 602l-71 -193q31 21 62 31q38 13 83 13q80 0 132 -44q57 -48 57 -130q0 -24 -6 -51q-18 -87 -77 -152q-86 -95 -230 -95q-79 0 -126 32q-62 42 -62 132v14q2 11 2 16h91q-1 -6 -1 -16q0 -51 33.5 -76.5t91.5 -25.5q66 0 117 46.5t65 114.5q5 25 5 41q0 55 -35 85
t-93 30q-79 0 -144 -67l-75 4l133 377h364l-18 -86h-298z" />
    <glyph glyph-name="six" unicode="6" 
d="M613 516h-86q0 51 -20 77q-24 31 -78 31q-90 0 -157 -102q-48 -72 -66 -158l2 -2q28 35 67 57q53 29 118 29q69 0 118 -36q61 -45 61 -131q0 -26 -6 -56q-21 -102 -105 -176q-37 -34 -75 -49q-48 -19 -117 -19q-48 0 -87 21q-49 27 -72 81q-19 47 -19 107q0 55 18 141.5
t54 161.5q45 93 109 146q77 64 175 64q67 0 112 -32q57 -41 57 -119q0 -16 -3 -36zM187 216q-4 -17 -4 -39q0 -51 27 -82q31 -35 92 -35q62 0 109.5 44.5t62.5 116.5q1 9 2.5 17t1.5 20q0 47 -24 76q-29 35 -91 35q-70 0 -118 -45q-43 -41 -58 -108z" />
    <glyph glyph-name="seven" unicode="7" 
d="M165 602l18 86h486l-16 -77q-53 -45 -120 -121q-89 -101 -157 -208q-88 -138 -142 -282h-97q47 140 169 314q118 168 246 288h-387z" />
    <glyph glyph-name="eight" unicode="8" 
d="M603 522q-14 -66 -56 -106q-24 -23 -66 -42q46 -21 67 -58q17 -30 17 -71q0 -8 -0.5 -15.5t-4.5 -26.5q-20 -92 -89 -153q-79 -69 -196 -69q-40 0 -76 10q-50 14 -82 44q-23 23 -33 51.5t-10 56.5q0 18 1.5 29t5.5 30q13 62 53 105t102 66q-70 30 -70 103v20q3 10 4 14
q16 71 70 124q71 69 184 69q94 0 142 -45q41 -39 41 -101q0 -9 -1.5 -19.5t-2.5 -15.5zM347 330q-70 0 -118 -40q-43 -36 -54 -90q-3 -15 -3.5 -19.5t-0.5 -15.5q0 -44 25 -71q32 -34 99 -34q60 0 100 25q53 33 69 108q2 7 3 17.5t1 18.5q0 51 -33 76t-88 25zM362 406
q56 0 97.5 32t51.5 81q2 14 2 22q0 35 -22 56q-28 27 -88 27q-63 0 -102 -38q-29 -29 -39 -72q-2 -8 -2 -22q0 -40 28.5 -63t73.5 -23z" />
    <glyph glyph-name="nine" unicode="9" 
d="M313 235q-84 0 -132 44t-48 124q0 11 1 23t6 36q21 101 93 168q78 73 184 73q107 0 154 -64q38 -51 38 -141q0 -28 -4 -58.5t-11 -62.5q-15 -71 -41 -136q-44 -111 -105 -174q-83 -86 -193 -86q-93 0 -138 50q-35 39 -35 100q0 23 4 38h88q-2 -18 -2 -25q0 -90 96 -90
q72 0 126 63t99 200q-28 -37 -79 -59.5t-101 -22.5zM343 314q51 0 90 27q59 41 79 133q5 25 5 43q0 49 -26 76q-30 31 -89 31q-62 0 -108.5 -43t-61.5 -115q-6 -30 -6 -52q0 -59 39 -83q28 -17 78 -17z" />
    <glyph glyph-name="colon" unicode=":" horiz-adv-x="278" 
d="M214 106l-23 -106h-104l23 106h104zM301 516l-23 -106h-104l23 106h104z" />
    <glyph glyph-name="semicolon" unicode=";" horiz-adv-x="278" 
d="M87 0l23 106h104l-21 -98q-18 -86 -72 -127q-30 -23 -65 -28l10 46q29 3 49 34q16 25 25 67h-53zM278 410h-104l23 106h104z" />
    <glyph glyph-name="less" unicode="&#x3c;" horiz-adv-x="584" 
d="M555 91l-17 -80l-444 207l15 70l532 207l-17 -80l-424 -162z" />
    <glyph glyph-name="equal" unicode="=" horiz-adv-x="584" 
d="M628 390l-16 -73h-506l16 73h506zM585 188l-16 -73h-506l16 73h506z" />
    <glyph glyph-name="greater" unicode="&#x3e;" horiz-adv-x="584" 
d="M136 415l17 80l444 -207l-15 -70l-532 -207l17 80l425 162z" />
    <glyph glyph-name="question" unicode="?" 
d="M249 493h-88q16 65 34 98q28 53 85 90q32 21 74 33.5t81 12.5q77 0 126 -39.5t49 -111.5v-16q-4 -19 -5 -29q-10 -47 -39 -83q-24 -30 -90 -82q-53 -43 -68 -58q-42 -44 -58 -125h-88q17 80 47 123q23 32 94 92q54 46 66 58q33 33 43 81q3 12 3 25q0 37 -20 60
q-25 29 -80 29q-82 0 -127 -63q-27 -38 -39 -95zM340 102l-22 -102h-97l22 102h97z" />
    <glyph glyph-name="at" unicode="@" horiz-adv-x="1015" 
d="M698 408q2 14 2 19q0 31 -18 52t-47 21q-63 0 -123 -66q-55 -60 -69 -129q-3 -15 -3 -27q0 -32 17 -51t49 -19q59 0 121 70q57 65 71 130zM747 494l33 62h68q-17 -36 -70 -140q-28 -56 -60 -121q-27 -55 -29 -65t-2 -13q0 -16 17 -16q51 0 111 68t77 148q6 30 6 58
q0 92 -64.5 146t-166.5 54q-132 0 -237.5 -92.5t-134.5 -227.5q-7 -34 -7 -69q0 -108 69.5 -175.5t182.5 -67.5q71 0 141 30t126 84h67q-66 -82 -159 -129t-190 -47q-137 0 -223.5 83.5t-86.5 214.5q0 40 9 82q33 156 167 266t290 110q123 0 203.5 -69.5t80.5 -179.5
q0 -19 -1 -30t-6 -33q-26 -124 -131 -212q-92 -77 -169 -77q-52 0 -52 49q0 9 1 14q-31 -26 -67 -44.5t-68 -18.5q-54 0 -85.5 34.5t-31.5 88.5v22q3 11 4 15q23 108 103 189q86 87 187 87q38 0 63 -18.5t35 -59.5z" />
    <glyph glyph-name="A" unicode="A" horiz-adv-x="667" 
d="M521 209h-288l-119 -209h-100l423 718h110l107 -718h-106zM282 295h223l-39 316z" />
    <glyph glyph-name="B" unicode="B" horiz-adv-x="667" 
d="M306 635l-47 -221h175q74 0 115 25q46 28 60 91q3 15 3 27q0 39 -31 58.5t-99 19.5h-176zM74 0l153 718h316q82 0 125.5 -39t43.5 -100q0 -19 -5 -42q-9 -43 -35 -78q-35 -47 -93 -72q43 -19 63 -38q35 -34 35 -90q0 -10 -1 -22.5t-4 -24.5q-19 -90 -94 -149
q-80 -63 -195 -63h-309zM242 335l-53 -252h207q75 0 120.5 34.5t58.5 96.5q4 22 4 30q0 51 -46 73q-37 18 -100 18h-191z" />
    <glyph glyph-name="C" unicode="C" horiz-adv-x="722" 
d="M781 502h-94q0 85 -59 122q-42 27 -111 27q-103 0 -181 -71q-85 -77 -114 -214q-13 -65 -13 -111q0 -89 42 -136q47 -52 145 -52q65 0 121 35q81 50 126 162h94q-44 -122 -128 -194q-63 -54 -146 -76q-49 -13 -100 -13q-112 0 -179 60q-77 69 -77 201q0 29 3 57t11 64
q36 169 147.5 271.5t267.5 102.5q123 0 188 -64q58 -57 58 -148v-14q-1 -6 -1 -9z" />
    <glyph glyph-name="D" unicode="D" horiz-adv-x="722" 
d="M81 0l153 718h291q114 0 176 -66t62 -181q0 -52 -11 -102q-31 -146 -116 -245q-107 -124 -268 -124h-287zM313 635l-117 -552h188q96 0 167.5 73.5t99.5 206.5q11 50 11 96q0 87 -43.5 131.5t-124.5 44.5h-181z" />
    <glyph glyph-name="E" unicode="E" horiz-adv-x="667" 
d="M634 86l-18 -86h-530l153 718h523l-19 -86h-426l-46 -220h393l-19 -86h-393l-51 -240h433z" />
    <glyph glyph-name="F" unicode="F" horiz-adv-x="611" 
d="M252 326l-69 -326h-97l153 718h497l-19 -86h-400l-46 -220h352l-19 -86h-352z" />
    <glyph glyph-name="G" unicode="G" horiz-adv-x="778" 
d="M453 301l18 83h315l-82 -384h-63l-3 93q-48 -51 -118.5 -81.5t-142.5 -30.5q-81 0 -136 27q-37 19 -67 54q-35 41 -49.5 87t-14.5 97q0 32 5 64q2 12 11 55q31 148 135 252q119 120 284 120q108 0 177 -58q76 -64 76 -179h-94q0 84 -62 122q-47 29 -121 29
q-101 0 -182 -75q-86 -79 -114 -216q-13 -60 -13 -108q0 -87 40 -133q47 -55 149 -55q38 0 68 7q46 11 88 39q53 36 82 85q25 42 38 106h-224z" />
    <glyph glyph-name="H" unicode="H" horiz-adv-x="722" 
d="M638 421l64 297h97l-153 -718h-97l71 335h-375l-71 -335h-97l153 718h97l-64 -297h375z" />
    <glyph glyph-name="I" unicode="I" horiz-adv-x="278" 
d="M341 718l-153 -718h-97l153 718h97z" />
    <glyph glyph-name="J" unicode="J" horiz-adv-x="500" 
d="M66 231h91l-11 -50q-5 -25 -5 -41q0 -39 23.5 -57.5t65.5 -18.5q63 0 98 35q30 30 43 89l113 530h97l-112 -524q-24 -115 -102 -169q-63 -44 -150 -44q-93 0 -136 46q-34 36 -34 94q0 10 0.5 16.5t3.5 22.5z" />
    <glyph glyph-name="K" unicode="K" horiz-adv-x="667" 
d="M227 252l-54 -252h-97l153 718h97l-74 -348l422 348h134l-361 -290l216 -428h-126l-174 360z" />
    <glyph glyph-name="L" unicode="L" 
d="M326 718l-135 -632h364l-18 -86h-461l153 718h97z" />
    <glyph glyph-name="M" unicode="M" horiz-adv-x="833" 
d="M761 0h-94l90 424l40 179l-332 -603h-96l-74 602l-38 -178l-90 -424h-94l153 718h139l76 -607l335 607h138z" />
    <glyph glyph-name="N" unicode="N" horiz-adv-x="722" 
d="M705 718h94l-153 -718h-109l-242 580l-125 -580h-94l153 718h115l235 -580z" />
    <glyph glyph-name="O" unicode="O" horiz-adv-x="778" 
d="M715 359q9 45 9 85q0 95 -51 151t-146 56q-116 0 -200 -81t-112 -211q-9 -45 -9 -85q0 -95 51 -151t146 -56q116 0 200 81t112 211zM815 359q-31 -144 -126 -247q-122 -131 -304 -131q-149 0 -221 89q-59 73 -59 194q0 39 3 61q5 23 7 34q31 143 127 247q122 131 304 131
q149 0 220 -89q59 -73 59 -193q0 -46 -10 -96z" />
    <glyph glyph-name="P" unicode="P" horiz-adv-x="667" 
d="M318 635l-53 -249h193q70 0 112 28q47 31 61 101q4 17 4 35q0 45 -32 65t-88 20h-197zM247 303l-64 -303h-97l153 718h323q83 0 129 -42t46 -113q0 -14 -1 -21.5t-4 -25.5q-19 -86 -79 -144q-72 -69 -180 -69h-226z" />
    <glyph glyph-name="Q" unicode="Q" horiz-adv-x="778" 
d="M451 148l62 60l76 -71q97 79 126 222q9 45 9 85q0 95 -51 151t-146 56q-116 0 -200 -81t-112 -211q-9 -45 -9 -85q0 -95 51 -151t146 -56q60 0 111 23zM733 2l-61 -58l-92 85q-40 -22 -90 -35t-105 -13q-149 0 -221 89q-59 73 -59 194q0 39 3 61q5 23 7 34
q31 143 127 247q122 131 304 131q149 0 220 -89q59 -73 59 -193q0 -46 -10 -96q-16 -75 -54 -145q-45 -82 -109 -136z" />
    <glyph glyph-name="R" unicode="R" horiz-adv-x="722" 
d="M250 308l-65 -308h-97l153 718h332q89 0 139 -29q62 -36 62 -114q0 -23 -6 -50q-15 -71 -57 -115q-29 -30 -80 -57q30 -14 42 -27q20 -22 20 -62q0 -16 -5 -46l-21 -130q-4 -17 -4 -32q0 -24 24 -40l-3 -16h-119q-1 5 -1 17q0 34 10 92.5t13 73.5t4 24.5t1 19.5
q0 37 -21 57q-26 24 -86 24h-235zM320 635l-52 -244h225q65 0 104 22q53 30 68 102q2 8 3 19t1 19q0 50 -37 69q-25 13 -70 13h-242z" />
    <glyph glyph-name="S" unicode="S" horiz-adv-x="667" 
d="M708 508h-91q3 17 3 30q0 60 -47 90q-41 26 -103 26q-63 0 -109 -22q-67 -32 -82 -104q-3 -12 -3 -23q0 -30 21 -47q15 -13 48 -21l195 -47q60 -15 93.5 -49.5t33.5 -94.5q0 -11 -1 -23t-4 -25q-24 -115 -131 -172q-84 -45 -196 -45q-89 0 -141 23q-35 15 -61 46
q-24 26 -33.5 53.5t-9.5 60.5q0 31 8 68h91q-5 -25 -5 -42q0 -67 53 -99q44 -27 115 -27q98 0 154 36q47 31 59 85q4 16 4 33q0 37 -28 56.5t-102 37.5l-139 34q-49 12 -76 33q-46 35 -46 97v15.5t4 23.5q20 93 91 153q81 69 204 69q137 0 194 -58q42 -42 42 -118
q0 -28 -5 -53z" />
    <glyph glyph-name="T" unicode="T" horiz-adv-x="611" 
d="M148 632l19 86h583l-19 -86h-243l-134 -632h-97l134 632h-243z" />
    <glyph glyph-name="U" unicode="U" horiz-adv-x="722" 
d="M700 718h97l-99 -466q-26 -118 -111 -191q-94 -80 -236 -80q-115 0 -175 57q-53 51 -53 138q0 11 0.5 24.5t6.5 38.5l102 479h97l-96 -452q-8 -38 -8 -65q0 -71 46 -105q39 -29 101 -29q79 0 136 40q72 51 95 157z" />
    <glyph glyph-name="V" unicode="V" horiz-adv-x="667" 
d="M691 718h109l-415 -718h-103l-109 718h108l75 -612z" />
    <glyph glyph-name="W" unicode="W" horiz-adv-x="944" 
d="M305 0h-102l-34 718h105l9 -584l288 584h106l36 -584l261 584h107l-342 -718h-102l-38 595z" />
    <glyph glyph-name="X" unicode="X" horiz-adv-x="667" 
d="M474 368l174 -368h-120l-130 295l-262 -295h-117l335 368l-166 350h122l123 -275l241 275h116z" />
    <glyph glyph-name="Y" unicode="Y" horiz-adv-x="667" 
d="M443 289l-61 -289h-97l61 289l-179 429h113l132 -345l280 345h114z" />
    <glyph glyph-name="Z" unicode="Z" horiz-adv-x="611" 
d="M606 86l-18 -86h-565l17 81l557 551h-407l19 86h532l-18 -84l-559 -548h442z" />
    <glyph glyph-name="bracketleft" unicode="[" horiz-adv-x="278" 
d="M280 651l-165 -776h108l-15 -71h-187l195 918h187l-15 -71h-108z" />
    <glyph glyph-name="backslash" unicode="\" horiz-adv-x="278" 
d="M224 -19l-84 756h66l85 -756h-67z" />
    <glyph glyph-name="bracketright" unicode="]" horiz-adv-x="278" 
d="M109 -125l165 776h-108l15 71h187l-195 -918h-187l15 71h108z" />
    <glyph glyph-name="asciicircum" unicode="^" horiz-adv-x="469" 
d="M539 264h-77l-98 344l-244 -344h-78l303 424h72z" />
    <glyph glyph-name="underscore" unicode="_" 
d="M529 -125h-556l11 50h556z" />
    <glyph glyph-name="grave" unicode="`" horiz-adv-x="333" 
d="M270 593l-100 141h108l59 -141h-67z" />
    <glyph glyph-name="a" unicode="a" 
d="M220 364h-81q23 91 87 132.5t166 41.5q56 0 97 -17q70 -29 70 -96v-15q-3 -12 -4 -18l-64 -301q-1 -4 -1 -10q0 -21 24 -21l30 4l-14 -64q-15 -4 -27 -7t-23 -3q-45 0 -61.5 15.5t-16.5 43.5q0 7 2 21q-41 -36 -81 -56q-59 -29 -126 -29q-62 0 -99 32t-37 85q0 8 1.5 18
t2.5 16q11 52 44 91q53 61 150 73l149 18q21 2 33 12q19 15 26 50q2 14 2 19q0 66 -107 66q-66 0 -103 -35q-22 -21 -39 -66zM422 181l19 86q-13 -9 -44.5 -16t-107.5 -17q-48 -6 -76 -20q-45 -22 -54 -65q-3 -15 -3 -28q0 -63 78 -63q63 0 120.5 36t67.5 87z" />
    <glyph glyph-name="b" unicode="b" 
d="M141 0h-83l153 718h88l-56 -261q77 81 170 81q83 0 127 -50.5t44 -134.5q0 -29 -1.5 -41.5t-6.5 -34.5q-25 -115 -89 -193q-81 -99 -203 -99q-58 0 -92 29q-21 18 -35 51zM482 263q4 18 7 38.5t3 42.5q0 51 -21 79q-27 36 -90 36q-84 0 -135 -79q-35 -54 -54 -143
q-6 -32 -6 -56q0 -63 38 -95q30 -25 74 -25q69 0 119 58q45 53 65 144z" />
    <glyph glyph-name="c" unicode="c" horiz-adv-x="500" 
d="M551 347h-85q0 55 -23 83.5t-77 28.5q-76 0 -127 -63q-42 -52 -59 -134q-10 -43 -10 -81q0 -55 22 -84q27 -36 88 -36q46 0 86.5 32.5t64.5 91.5h85q-25 -79 -79 -131q-72 -69 -176 -69q-90 0 -138 51t-48 137q0 29 1.5 40t6.5 34q27 128 104 206q84 85 208 85
q82 0 123 -48q35 -41 35 -108v-13q0 -8 -2 -22z" />
    <glyph glyph-name="d" unicode="d" 
d="M652 718l-153 -718h-83l15 72q-38 -49 -86 -70q-38 -17 -83 -17q-95 0 -140 62q-38 52 -38 139q0 37 3 58q5 23 7 33q24 114 97.5 187.5t175.5 73.5q62 0 99 -33q20 -18 38 -56l4 7l56 262h88zM182 263q-9 -41 -9 -75q0 -60 26 -93.5t81 -33.5t100 35q60 47 80 141
q4 21 8 48.5t4 49.5q0 55 -21 86q-26 38 -84 38q-89 0 -138 -73q-31 -46 -47 -123z" />
    <glyph glyph-name="e" unicode="e" 
d="M456 164h88q-9 -28 -36 -64q-38 -50 -88 -79q-28 -16 -53 -24q-40 -12 -96 -12q-90 0 -138 51t-48 137q0 29 1.5 40t6.5 34q27 128 104 206q84 85 208 85q87 0 130.5 -50.5t43.5 -143.5q0 -46 -13 -111h-382q-7 -29 -7 -58q0 -114 122 -114q56 0 105 37q42 32 52 66z
M198 303h291q1 11 2.5 21t1.5 22q0 52 -25 80q-29 33 -91 33q-60 0 -112.5 -46.5t-66.5 -109.5z" />
    <glyph glyph-name="f" unicode="f" horiz-adv-x="278" 
d="M358 450h-88l-96 -450h-88l96 450h-72l15 73h72l19 90q13 58 54 86.5t107 28.5l39 -2l-16 -79l-36 2q-52 0 -65 -61l-14 -65h88z" />
    <glyph glyph-name="g" unicode="g" 
d="M187 263q-9 -41 -9 -75q0 -60 26 -93.5t81 -33.5t100 35q60 47 80 141q4 21 8 48.5t4 49.5q0 55 -21 86q-26 38 -84 38q-89 0 -138 -73q-31 -46 -47 -123zM610 523l-102 -480q-22 -103 -64 -159q-78 -104 -235 -104q-65 0 -106 22q-62 34 -62 114q0 13 1 20h88
q0 -42 25.5 -62.5t75.5 -20.5q99 0 146 68q25 37 42 116l5 22l-3 -4q-26 -31 -65 -50.5t-89 -19.5q-95 0 -140 62q-38 52 -38 139q0 37 3 58q5 23 7 33q24 114 97.5 187.5t175.5 73.5q62 0 99 -33q20 -18 38 -56l18 74h83z" />
    <glyph glyph-name="h" unicode="h" 
d="M567 356l-76 -356h-88l73 342q6 26 6 47q0 35 -18 51q-21 19 -67 19q-62 0 -108 -37q-55 -45 -75 -137l-61 -285h-88l153 718h88l-57 -265q40 39 67 55q50 30 106 30q64 0 102 -25q49 -32 49 -104q0 -23 -6 -53z" />
    <glyph glyph-name="i" unicode="i" horiz-adv-x="222" 
d="M266 523l-111 -523h-88l111 523h88zM286 618h-88l22 100h88z" />
    <glyph glyph-name="j" unicode="j" horiz-adv-x="222" 
d="M266 523l-127 -600q-12 -54 -36 -83q-42 -50 -127 -50l-36 3l16 76h18q42 0 55.5 10t23.5 54l125 590h88zM308 718l-22 -100h-88l22 100h88z" />
    <glyph glyph-name="k" unicode="k" horiz-adv-x="500" 
d="M359 328l142 -328h-113l-107 264l-87 -66l-42 -198h-85l153 718h85l-89 -416l272 221h112z" />
    <glyph glyph-name="l" unicode="l" horiz-adv-x="222" 
d="M308 718l-153 -718h-88l153 718h88z" />
    <glyph glyph-name="m" unicode="m" horiz-adv-x="833" 
d="M65 0l111 523h83l-16 -74q36 37 64 55q54 34 115 34t92 -32q18 -18 29 -53q51 46 79 61q44 24 99 24q51 0 84 -23q47 -32 47 -102q0 -22 -6 -51l-77 -362h-88l72 338q6 27 6 48q0 35 -18 54t-59 19q-54 0 -97.5 -41.5t-55.5 -98.5l-68 -319h-88l77 362q3 15 3 32
q0 29 -13 45q-16 20 -51 20q-52 0 -95 -33q-60 -46 -80 -141l-61 -285h-88z" />
    <glyph glyph-name="n" unicode="n" 
d="M567 356l-76 -356h-88l68 322q8 37 8 60q0 40 -20.5 58.5t-69.5 18.5q-52 0 -95 -33q-60 -46 -80 -141l-61 -285h-88l111 523h83l-16 -74q34 35 66 55q55 34 113 34q64 0 102 -25q49 -32 49 -104q0 -23 -6 -53z" />
    <glyph glyph-name="o" unicode="o" 
d="M91 262q23 112 98 189q85 87 203 87q97 0 148 -61q45 -54 45 -143q0 -34 -8 -72q-24 -112 -99 -189q-85 -87 -203 -87q-97 0 -147 60q-45 54 -45 142q0 34 8 74zM182 262q-7 -32 -7 -64q0 -59 23 -93q29 -43 93 -43q84 0 139 73q40 53 56 127q3 14 5 29.5t2 33.5
q0 59 -23 93q-30 44 -94 44q-83 0 -138 -73q-40 -54 -56 -127z" />
    <glyph glyph-name="p" unicode="p" 
d="M192 237q-6 -32 -6 -56q0 -63 38 -95q30 -25 74 -25q69 0 119 58q45 53 65 144q4 18 7 38.5t3 42.5q0 51 -21 79q-27 36 -90 36q-84 0 -135 -79q-35 -54 -54 -143zM14 -207l155 730h83l-16 -74q51 51 86 68q43 21 91 21q83 0 127 -50.5t44 -134.5q0 -29 -1.5 -41.5
t-6.5 -34.5q-25 -115 -89 -193q-81 -99 -203 -99q-49 0 -80.5 20t-43.5 50l-58 -262h-88z" />
    <glyph glyph-name="q" unicode="q" 
d="M605 523l-155 -730h-88l56 262q-28 -31 -67 -50.5t-89 -19.5q-95 0 -140 62q-38 52 -38 139q0 37 3 58q5 23 7 33q24 114 97.5 187.5t175.5 73.5q62 0 99 -33q20 -18 38 -56l18 74h83zM460 237q4 21 8 48.5t4 49.5q0 55 -21 86q-26 38 -84 38q-89 0 -138 -73
q-31 -46 -47 -123q-9 -41 -9 -75q0 -60 26 -93.5t81 -33.5t100 35q60 47 80 141z" />
    <glyph glyph-name="r" unicode="r" horiz-adv-x="333" 
d="M230 304l-65 -304h-88l111 523h83l-18 -87q40 49 79 74q44 28 91 28q12 0 23 -3l-20 -91h-33q-60 0 -105.5 -40.5t-57.5 -99.5z" />
    <glyph glyph-name="s" unicode="s" horiz-adv-x="500" 
d="M526 374h-85q2 12 2 21q0 29 -19 45q-26 22 -88 22q-36 0 -65 -12q-46 -19 -55 -62q-2 -12 -2 -16q0 -21 18.5 -31.5t64.5 -22.5l83 -22q65 -17 93.5 -42.5t28.5 -64.5q0 -6 -1.5 -16t-2.5 -15q-17 -79 -85 -126t-159 -47q-109 0 -156 45q-35 34 -35 92q0 16 2 28l3 18
h85q-2 -16 -2 -25q0 -35 21 -55q29 -27 97 -27q53 0 88 19q41 22 50 64q2 10 2 15q0 35 -90 60l-97 25q-47 13 -72 36t-25 63q0 13 3 28q17 81 87 126q64 41 146 41q97 0 139 -49q29 -34 29 -86q0 -9 -1 -16t-2 -13z" />
    <glyph glyph-name="t" unicode="t" horiz-adv-x="278" 
d="M353 450h-84l-73 -340q-1 -3 -1 -6.5v-4.5q0 -19 17 -26q10 -4 29 -4h31l-15 -69l-67 -7q-48 0 -68 19t-20 53q0 17 5 40l74 345h-71l15 73h71l31 146h88l-31 -146h84z" />
    <glyph glyph-name="u" unicode="u" 
d="M489 0h-83l16 76q-41 -47 -83 -69t-104 -22q-59 0 -96 25q-45 31 -45 94q0 16 5 43l80 376h88l-74 -347q-5 -25 -5 -40q0 -39 22 -57t60 -18q76 0 126 58q40 47 55 116l61 288h88z" />
    <glyph glyph-name="v" unicode="v" horiz-adv-x="500" 
d="M507 523h96l-310 -523h-94l-80 523h102l46 -426z" />
    <glyph glyph-name="w" unicode="w" horiz-adv-x="722" 
d="M256 0h-91l-40 523h96l13 -411l190 411h98l15 -411l195 411h88l-263 -523h-91l-20 405z" />
    <glyph glyph-name="x" unicode="x" horiz-adv-x="500" 
d="M363 269l127 -269h-112l-88 197l-168 -197h-111l241 269l-121 254h113l82 -184l160 184h108z" />
    <glyph glyph-name="y" unicode="y" horiz-adv-x="500" 
d="M503 523h97q-49 -86 -97 -171q-81 -142 -98 -171q-30 -51 -102 -171q-97 -160 -132.5 -192t-119.5 -32q-10 0 -20 3t-16 5l17 80q9 -4 21.5 -6.5t29.5 -2.5q33 0 51 19t68 102l-80 537h100l49 -426z" />
    <glyph glyph-name="z" unicode="z" horiz-adv-x="500" 
d="M556 451l-392 -378h321l-16 -73h-438l15 69l396 381h-291l15 73h405z" />
    <glyph glyph-name="braceleft" unicode="{" horiz-adv-x="334" 
d="M92 234l12 60q35 0 66 36t42 91l37 172q12 59 50 94t79 35h67l-13 -65h-44q-24 0 -40 -22.5t-24 -59.5l-36 -170q-18 -64 -61 -105q-30 -29 -57 -35q22 -9 37 -28q24 -31 24 -82q0 -15 -3 -35l-36 -169q-5 -23 -5 -39q0 -21 7.5 -32t25.5 -11h44l-14 -65h-67
q-33 0 -55.5 24.5t-22.5 67.5v15t4 22l36 171q5 27 5 46q0 39 -15.5 61.5t-42.5 22.5z" />
    <glyph glyph-name="bar" unicode="|" horiz-adv-x="260" 
d="M90 -19l161 756h73l-161 -756h-73z" />
    <glyph glyph-name="braceright" unicode="}" horiz-adv-x="334" 
d="M354 294l-12 -60q-35 0 -66 -37t-43 -93l-36 -171q-13 -59 -51 -94t-79 -35h-67l14 65h44q24 0 40 22.5t24 59.5l36 169q18 68 61 108q28 27 57 35q-20 7 -37 29q-24 32 -24 80q0 15 3 33l36 170q5 23 5 39q0 21 -7.5 32t-25.5 11h-44l13 65h67q34 0 56.5 -24.5
t22.5 -68.5v-21q-3 -11 -4 -15l-37 -172q-5 -25 -5 -43q0 -38 16 -61t43 -23z" />
    <glyph glyph-name="asciitilde" unicode="~" horiz-adv-x="584" 
d="M556 326l24 -56q-33 -40 -66 -61q-39 -25 -77 -25q-27 0 -47 8t-46.5 24.5t-47.5 24.5q-30 11 -61 11q-29 0 -57 -23q-22 -18 -43 -49l-24 56q28 38 58 59q39 27 85 27q25 0 52 -9q18 -6 53 -23q70 -36 94 -36q26 0 55 23q19 16 48 49z" />
    <glyph glyph-name="quotesinglbase" unicode="&#x201a;" horiz-adv-x="222" 
d="M53 0l23 106h104l-21 -98q-14 -63 -43 -100q-34 -43 -95 -57l10 47q35 5 55 41q12 21 20 61h-53z" />
    <glyph glyph-name="quotedblbase" unicode="&#x201e;" horiz-adv-x="333" 
d="M26 0l23 106h104l-21 -98q-14 -63 -43 -100q-34 -43 -95 -57l10 47q35 5 55 41q12 21 20 61h-53zM191 0l23 106h104l-21 -98q-14 -63 -43 -100q-34 -43 -95 -57l10 47q35 5 55 41q12 21 20 61h-53z" />
    <glyph glyph-name="ellipsis" unicode="&#x2026;" horiz-adv-x="1000" 
d="M242 106l-23 -106h-104l23 106h104zM575 106l-23 -106h-104l23 106h104zM908 106l-23 -106h-104l23 106h104z" />
    <glyph glyph-name="dagger" unicode="&#x2020;" 
d="M418 431l-126 -590h-94l126 590h-189l16 76h189l45 211h94l-45 -211h188l-16 -76h-188z" />
    <glyph glyph-name="daggerdbl" unicode="&#x2021;" 
d="M419 439l-68 -320h188l-16 -76h-188l-43 -202h-94l43 202h-189l16 76h189l68 320h-189l16 76h189l44 203h94l-44 -203h188l-16 -76h-188z" />
    <glyph glyph-name="perthousand" unicode="&#x2030;" horiz-adv-x="1000" 
d="M122 539q13 65 68.5 110.5t120.5 45.5q56 0 91 -35t35 -89q0 -15 -3 -32q-14 -65 -69 -110.5t-121 -45.5q-56 0 -91 34t-35 89q0 13 1 20q3 9 3 13zM185 539q-2 -7 -2 -21q0 -31 20.5 -51.5t54.5 -20.5q38 0 71.5 27.5t41.5 65.5q2 14 2 20q0 32 -21.5 52.5t-54.5 20.5
q-40 0 -72 -27t-40 -66zM351 149q13 65 68.5 110.5t120.5 45.5q56 0 91 -35t35 -89q0 -15 -3 -32q-14 -64 -69 -110t-120 -46q-57 0 -92 34t-35 89q0 13 1 20q3 9 3 13zM414 149q-2 -7 -2 -21q0 -31 20.5 -51.5t54.5 -20.5q38 0 71.5 27.5t41.5 65.5q2 14 2 20
q0 32 -21.5 52.5t-54.5 20.5q-40 0 -72 -27t-40 -66zM714 149q13 65 68.5 110.5t120.5 45.5q56 0 91 -35t35 -89q0 -15 -3 -32q-14 -64 -69 -110t-120 -46q-57 0 -92 34t-35 89q0 13 1 20q3 9 3 13zM777 149q-2 -7 -2 -21q0 -31 20.5 -51.5t54.5 -20.5q38 0 71.5 27.5
t41.5 65.5q2 14 2 20q0 32 -21.5 52.5t-54.5 20.5q-40 0 -72 -27t-40 -66zM693 703l-550 -722h-55l550 722h55z" />
    <glyph glyph-name="guilsinglleft" unicode="&#x2039;" horiz-adv-x="333" 
d="M287 196l-19 -88l-131 123l20 92l183 123l-19 -88l-122 -81z" />
    <glyph glyph-name="quoteleft" unicode="&#x2018;" horiz-adv-x="222" 
d="M291 576l-22 -106h-104l21 98q13 63 42 100q34 43 95 57l-10 -47q-36 -5 -55 -41q-10 -18 -20 -61h53z" />
    <glyph glyph-name="quoteright" unicode="&#x2019;" horiz-adv-x="222" 
d="M183 612l23 106h104l-21 -98q-14 -63 -43 -100q-34 -43 -95 -57l10 47q35 5 55 41q12 21 20 61h-53z" />
    <glyph glyph-name="quotedblleft" unicode="&#x201c;" horiz-adv-x="333" 
d="M429 576l-22 -106h-104l21 98q13 63 42 100q34 43 95 57l-10 -47q-36 -5 -55 -41q-10 -18 -20 -61h53zM264 576l-22 -106h-104l21 98q13 63 42 100q34 43 95 57l-10 -47q-36 -5 -55 -41q-10 -18 -20 -61h53z" />
    <glyph glyph-name="quotedblright" unicode="&#x201d;" horiz-adv-x="333" 
d="M156 612l23 106h104l-21 -98q-14 -63 -43 -100q-34 -43 -95 -57l10 47q35 5 55 41q12 21 20 61h-53zM321 612l23 106h104l-21 -98q-14 -63 -43 -100q-34 -43 -95 -57l10 47q35 5 55 41q12 21 20 61h-53z" />
    <glyph glyph-name="bullet" unicode="&#x2022;" horiz-adv-x="350" 
d="M409 359q-14 -65 -69.5 -111t-121.5 -46q-57 0 -92 35t-35 90q0 15 3 32q15 67 69.5 112.5t121.5 45.5q56 0 92 -36t36 -89q0 -8 -1.5 -18t-2.5 -15z" />
    <glyph glyph-name="endash" unicode="&#x2013;" 
d="M623 313l-16 -73h-556l16 73h556z" />
    <glyph glyph-name="emdash" unicode="&#x2014;" horiz-adv-x="1000" 
d="M1067 313l-16 -73h-1000l16 73h1000z" />
    <glyph glyph-name="trademark" unicode="&#x2122;" horiz-adv-x="1000" 
d="M710 718l53 -303l181 303h112l-88 -412h-73l71 335l-202 -335h-50l-58 335l-73 -335h-73l88 412h112zM526 718l-13 -60h-127l-75 -352h-73l75 352h-127l13 60h327z" />
    <glyph glyph-name="guilsinglright" unicode="&#x203a;" horiz-adv-x="333" 
d="M111 108l19 88l122 81l-88 81l19 88l131 -123l-20 -92z" />
    <glyph glyph-name="nonbreakingspace" unicode="&#xa0;" horiz-adv-x="500" 
 />
    <glyph glyph-name="sterling" unicode="&#xa3;" horiz-adv-x="500" 
d="M66 231h91l-11 -50q-5 -25 -5 -41q0 -39 23.5 -57.5t65.5 -18.5q63 0 98 35q30 30 43 89l113 530h97l-112 -524q-24 -115 -102 -169q-63 -44 -150 -44q-93 0 -136 46q-34 36 -34 94q0 10 0.5 16.5t3.5 22.5z" />
    <glyph glyph-name="currency" unicode="&#xa4;" 
d="M608 603l38 -48l-67 -54q25 -38 25 -95q0 -26 -6 -55q-19 -88 -82 -151l42 -56l-55 -45l-43 58q-34 -26 -76.5 -40.5t-83.5 -14.5q-89 0 -138 55l-67 -58l-35 45l66 56q-12 19 -18 44t-6 50q0 28 6 57q18 92 81 150l-43 54l58 48l45 -56q70 51 156 51t134 -51zM181 351
q-2 -8 -3 -22.5t-1 -15.5q0 -60 38.5 -100.5t99.5 -40.5q71 0 132.5 52.5t77.5 126.5q4 16 4 36q0 60 -38.5 100.5t-100.5 40.5q-71 0 -132.5 -52.5t-76.5 -124.5z" />
    <glyph glyph-name="brokenbar" unicode="&#xa6;" horiz-adv-x="260" 
d="M90 -19l62 294h73l-62 -294h-73zM192 460l59 277h73l-59 -277h-73z" />
    <glyph glyph-name="section" unicode="&#xa7;" 
d="M578 554h-85q0 5 1.5 16.5t1.5 17.5q0 32 -14 49q-19 24 -66 24q-35 0 -64 -18q-36 -22 -45 -63q-2 -10 -2 -15q0 -21 15 -40q12 -15 41 -35l128 -86q37 -25 56 -51q23 -32 23 -73v-21q-3 -11 -4 -15q-12 -57 -53 -99q-30 -31 -84 -61q16 -22 23.5 -40.5t7.5 -43.5
q0 -13 -3 -30q-16 -73 -84 -119q-62 -42 -132 -42q-76 0 -117 31q-46 35 -46 104q0 24 6 53h88q-2 -10 -3 -17t-1 -19q0 -32 15 -51q20 -25 63 -25q40 0 69 14q43 21 53 69q2 12 2 16q0 33 -40 63l-180 140q-23 18 -33 42t-10 49q0 13 4 31q12 58 49 98q29 31 84 60
q-29 41 -29 72q0 8 4 28q13 64 64 112q62 58 152 58q62 0 101 -26q50 -33 50 -104q0 -24 -6 -53zM435 321l-151 107q-35 -16 -58 -39.5t-30 -57.5q-3 -14 -3 -24q0 -18 7 -33.5t23 -27.5l163 -122q41 23 58 40q25 25 33 61q2 14 2 20q0 25 -11 42.5t-33 33.5z" />
    <glyph glyph-name="dieresis" unicode="&#xa8;" horiz-adv-x="667" 
d="M541 0h-530l153 718h523l-19 -86h-426l-46 -220h393l-19 -86h-393l-51 -240h433zM413 799h-91l22 102h91zM575 799h-91l22 102h91z" />
    <glyph glyph-name="copyright" unicode="&#xa9;" horiz-adv-x="737" 
d="M366 -19q-137 0 -224.5 82.5t-87.5 214.5q0 40 9 82q34 161 169.5 269t294.5 108q135 0 223 -83t88 -214q0 -38 -9 -80q-35 -162 -172 -272q-133 -107 -291 -107zM139 360q-4 -19 -6 -37t-2 -37q0 -108 68 -175t180 -67q129 0 237 90t137 226q8 38 8 71
q0 108 -68.5 175.5t-179.5 67.5q-130 0 -238 -90t-136 -224zM562 289h68q-30 -74 -89.5 -117.5t-130.5 -43.5q-85 0 -132 48t-47 128q0 27 6 57q21 102 94.5 166.5t173.5 64.5q72 0 113.5 -40.5t41.5 -116.5h-67q0 41 -27 66t-74 25q-68 0 -115.5 -46t-63.5 -118
q-5 -25 -5 -43q0 -56 30 -90.5t86 -34.5q47 0 85 26t53 69z" />
    <glyph glyph-name="guillemotleft" unicode="&#xab;" 
d="M296 196l-19 -88l-131 123l20 92l183 123l-19 -88l-122 -81zM501 196l-19 -88l-131 123l20 92l183 123l-19 -88l-122 -81z" />
    <glyph glyph-name="logicalnot" unicode="&#xac;" horiz-adv-x="584" 
d="M495 108l44 209h-433l16 73h506l-60 -282h-73z" />
    <glyph glyph-name="minus" unicode="&#xad;" horiz-adv-x="333" 
d="M468 684l-12 -57h-313l12 57h313z" />
    <glyph glyph-name="registered" unicode="&#xae;" horiz-adv-x="737" 
d="M366 -19q-137 0 -224.5 82.5t-87.5 214.5q0 40 9 82q34 161 169.5 269t294.5 108q135 0 223 -83t88 -214q0 -38 -9 -80q-35 -162 -172 -272q-133 -107 -291 -107zM139 360q-4 -19 -6 -37t-2 -37q0 -108 68 -175t180 -67q129 0 237 90t137 226q8 38 8 71
q0 108 -68.5 175.5t-179.5 67.5q-130 0 -238 -90t-136 -224zM360 330l-40 -189h-66l93 436h166q131 0 131 -88v-21q-3 -11 -4 -15q-11 -55 -50 -86q-35 -27 -88 -34l83 -192h-74l-75 189h-76zM372 386h79q53 0 76 10q35 15 45 61q2 12 2 16q0 27 -23 37.5t-60 10.5h-90z" />
    <glyph glyph-name="macron" unicode="&#xaf;" horiz-adv-x="278" 
d="M341 718l-153 -718h-97l153 718h97zM254 901l-22 -102h-91l22 102h91zM416 901l-22 -102h-91l22 102h91z" />
    <glyph glyph-name="degree" unicode="&#xb0;" horiz-adv-x="400" 
d="M340 660q-39 0 -75 -31t-45 -72q-2 -14 -2 -20q0 -35 22 -59t56 -24q40 0 75.5 31t44.5 72q2 7 2 21q0 34 -22 58t-56 24zM464 557q-13 -63 -63.5 -104.5t-113.5 -41.5q-53 0 -85.5 31.5t-32.5 82.5q0 15 3 32q14 62 64.5 104t112.5 42q53 0 86 -32t33 -82q0 -7 -1.5 -17
t-2.5 -15z" />
    <glyph glyph-name="plusminus" unicode="&#xb1;" horiz-adv-x="584" 
d="M329 345l35 161h73l-35 -161h216l-15 -73h-216l-34 -161h-73l34 161h-217l15 73h217zM39 0l16 73h506l-16 -73h-506z" />
    <glyph glyph-name="twosuperior" unicode="&#xb2;" horiz-adv-x="278" 
d="M341 718l-153 -718h-97l153 718h97z" />
    <glyph glyph-name="threesuperior" unicode="&#xb3;" horiz-adv-x="222" 
d="M266 523l-111 -523h-88l111 523h88zM286 618h-88l22 100h88z" />
    <glyph glyph-name="mu" unicode="&#xb5;" 
d="M489 0h-83l16 76q-41 -47 -83 -69t-104 -22q-22 0 -37 5q-24 8 -36 29l-50 -226h-88l75 354l80 376h88l-74 -347q-5 -25 -5 -40q0 -39 22 -57t60 -18q76 0 126 58q40 47 55 116l61 288h88z" />
    <glyph glyph-name="paragraph" unicode="&#xb6;" horiz-adv-x="537" 
d="M195 -173l110 517q-83 0 -131 41t-48 106v22q3 11 4 15q20 95 92 142.5t180 47.5h248l-190 -891h-73l177 831h-119l-177 -831h-73z" />
    <glyph glyph-name="periodcentered" unicode="&#xb7;" horiz-adv-x="278" 
d="M207 315q21 0 35.5 -14.5t14.5 -36.5q0 -8 -1 -12q-5 -25 -27.5 -43.5t-49.5 -18.5q-23 0 -36 14t-13 36q0 8 1 12q5 27 28 45t48 18z" />
    <glyph glyph-name="periodcentered" unicode="&#x2219;" horiz-adv-x="278" 
d="M207 315q21 0 35.5 -14.5t14.5 -36.5q0 -8 -1 -12q-5 -25 -27.5 -43.5t-49.5 -18.5q-23 0 -36 14t-13 36q0 8 1 12q5 27 28 45t48 18z" />
    <glyph glyph-name="cedilla" unicode="&#xb8;" 
d="M306 604h-91l22 102h91zM468 604h-91l22 102h91zM479 164q-9 -28 -36 -64q-38 -50 -88 -79q-28 -16 -53 -24q-40 -12 -96 -12q-90 0 -138 51t-48 137q0 29 1.5 40t6.5 34q27 128 104 206q84 85 208 85q87 0 130.5 -50.5t43.5 -143.5q0 -46 -13 -111h-382q-7 -29 -7 -58
q0 -114 122 -114q56 0 105 37q42 32 52 66h88zM424 303q1 11 2.5 21t1.5 22q0 52 -25 80q-29 33 -91 33q-60 0 -112.5 -46.5t-66.5 -109.5h291z" />
    <glyph glyph-name="onesuperior" unicode="&#xb9;" horiz-adv-x="365" 
d="M462 571q-18 -89 -79 -132q-48 -34 -114 -34q-55 0 -88 24q-41 30 -41 92q0 23 6 50q19 90 79 132q48 34 115 34q55 0 88 -24q40 -29 40 -91q0 -22 -6 -51zM395 571q5 18 5 40q0 31 -14 50q-18 24 -57 24q-52 0 -84 -41q-22 -29 -32 -73l-3 -19.5t-1 -19.5q0 -32 14 -51
q18 -24 57 -24q53 0 84 41q23 29 31 73zM110 352h296l-10 -48h-296z" />
    <glyph glyph-name="guillemotright" unicode="&#xbb;" 
d="M303 231l-183 -123l19 88l122 81l-88 81l19 88l131 -123zM508 231l-183 -123l19 88l122 81l-88 81l19 88l131 -123z" />
    <glyph glyph-name="onequarter" unicode="&#xbc;" horiz-adv-x="222" 
d="M266 523l-127 -600q-12 -54 -36 -83q-42 -50 -127 -50l-36 3l16 76h18q42 0 55.5 10t23.5 54l125 590h88zM308 718l-22 -100h-88l22 100h88z" />
    <glyph glyph-name="onehalf" unicode="&#xbd;" horiz-adv-x="667" 
d="M708 508h-91q3 17 3 30q0 60 -47 90q-41 26 -103 26q-63 0 -109 -22q-67 -32 -82 -104q-3 -12 -3 -23q0 -30 21 -47q15 -13 48 -21l195 -47q60 -15 93.5 -49.5t33.5 -94.5q0 -11 -1 -23t-4 -25q-24 -115 -131 -172q-84 -45 -196 -45q-89 0 -141 23q-35 15 -61 46
q-24 26 -33.5 53.5t-9.5 60.5q0 31 8 68h91q-5 -25 -5 -42q0 -67 53 -99q44 -27 115 -27q98 0 154 36q47 31 59 85q4 16 4 33q0 37 -28 56.5t-102 37.5l-139 34q-49 12 -76 33q-46 35 -46 97v15.5t4 23.5q20 93 91 153q81 69 204 69q137 0 194 -58q42 -42 42 -118
q0 -28 -5 -53z" />
    <glyph glyph-name="threequarters" unicode="&#xbe;" horiz-adv-x="500" 
d="M526 374h-85q2 12 2 21q0 29 -19 45q-26 22 -88 22q-36 0 -65 -12q-46 -19 -55 -62q-2 -12 -2 -16q0 -21 18.5 -31.5t64.5 -22.5l83 -22q65 -17 93.5 -42.5t28.5 -64.5q0 -6 -1.5 -16t-2.5 -15q-17 -79 -85 -126t-159 -47q-109 0 -156 45q-35 34 -35 92q0 16 2 28l3 18
h85q-2 -16 -2 -25q0 -35 21 -55q29 -27 97 -27q53 0 88 19q41 22 50 64q2 10 2 15q0 35 -90 60l-97 25q-47 13 -72 36t-25 63q0 13 3 28q17 81 87 126q64 41 146 41q97 0 139 -49q29 -34 29 -86q0 -9 -1 -16t-2 -13z" />
    <glyph glyph-name="questiondown" unicode="&#xbf;" horiz-adv-x="278" 
d="M294 523l-111 -523h-88l111 523h88zM254 706l-22 -102h-91l22 102h91zM416 706l-22 -102h-91l22 102h91z" />
    <glyph glyph-name="Agrave" unicode="&#xc0;" horiz-adv-x="667" 
d="M167 209l-119 -209h-100l423 718h110l107 -718h-106l-27 209h-288zM439 295l-39 316l-184 -316h223z" />
    <glyph glyph-name="Agrave" unicode="&#x410;" horiz-adv-x="667" 
d="M167 209l-119 -209h-100l423 718h110l107 -718h-106l-27 209h-288zM439 295l-39 316l-184 -316h223z" />
    <glyph glyph-name="Aacute" unicode="&#xc1;" horiz-adv-x="667" 
d="M242 632l-46 -217h237q92 0 138 -47q41 -41 41 -111q0 -26 -6 -53q-18 -85 -96.5 -144.5t-164.5 -59.5h-334l153 718h506l-19 -86h-409zM126 83h213q66 0 107 27q47 31 61 95q5 25 5 40q0 47 -32.5 67t-91.5 20h-209z" />
    <glyph glyph-name="Aacute" unicode="&#x411;" horiz-adv-x="667" 
d="M242 632l-46 -217h237q92 0 138 -47q41 -41 41 -111q0 -26 -6 -53q-18 -85 -96.5 -144.5t-164.5 -59.5h-334l153 718h506l-19 -86h-409zM126 83h213q66 0 107 27q47 31 61 95q5 25 5 40q0 47 -32.5 67t-91.5 20h-209z" />
    <glyph glyph-name="Acircumflex" unicode="&#xc2;" horiz-adv-x="667" 
d="M164 718h316q82 0 125.5 -39t43.5 -100q0 -19 -5 -42q-9 -43 -35 -78q-35 -47 -93 -72q43 -19 63 -38q35 -34 35 -90q0 -10 -1 -22.5t-4 -24.5q-19 -90 -94 -149q-80 -63 -195 -63h-309zM196 414h175q74 0 115 25q46 28 60 91q3 15 3 27q0 39 -31 58.5t-99 19.5h-176z
M126 83h207q75 0 120.5 34.5t58.5 96.5q4 22 4 30q0 51 -46 73q-37 18 -100 18h-191z" />
    <glyph glyph-name="Acircumflex" unicode="&#x412;" horiz-adv-x="667" 
d="M164 718h316q82 0 125.5 -39t43.5 -100q0 -19 -5 -42q-9 -43 -35 -78q-35 -47 -93 -72q43 -19 63 -38q35 -34 35 -90q0 -10 -1 -22.5t-4 -24.5q-19 -90 -94 -149q-80 -63 -195 -63h-309zM196 414h175q74 0 115 25q46 28 60 91q3 15 3 27q0 39 -31 58.5t-99 19.5h-176z
M126 83h207q75 0 120.5 34.5t58.5 96.5q4 22 4 30q0 51 -46 73q-37 18 -100 18h-191z" />
    <glyph glyph-name="Atilde" unicode="&#xc3;" 
d="M108 1h-97l153 717h471l-19 -86h-374z" />
    <glyph glyph-name="Atilde" unicode="&#x413;" 
d="M108 1h-97l153 717h471l-19 -86h-374z" />
    <glyph glyph-name="Adieresis" unicode="&#xc4;" horiz-adv-x="667" 
d="M40 0l-28 -134h-88l46 220h48q36 43 55.5 86.5t33.5 107.5l93 438h479l-135 -632h55l-46 -220h-88l28 134h-453zM110 86h337l116 546h-290l-74 -352q-24 -110 -89 -194z" />
    <glyph glyph-name="Adieresis" unicode="&#x414;" horiz-adv-x="667" 
d="M40 0l-28 -134h-88l46 220h48q36 43 55.5 86.5t33.5 107.5l93 438h479l-135 -632h55l-46 -220h-88l28 134h-453zM110 86h337l116 546h-290l-74 -352q-24 -110 -89 -194z" />
    <glyph glyph-name="Aring" unicode="&#xc5;" horiz-adv-x="667" 
d="M541 0h-530l153 718h523l-19 -86h-426l-46 -220h393l-19 -86h-393l-51 -240h433z" />
    <glyph glyph-name="Aring" unicode="&#x415;" horiz-adv-x="667" 
d="M541 0h-530l153 718h523l-19 -86h-426l-46 -220h393l-19 -86h-393l-51 -240h433z" />
    <glyph glyph-name="AE" unicode="&#xc6;" horiz-adv-x="999" 
d="M485 0h-97l54 252l-68 102l-297 -354h-126l368 422l-207 296h134l221 -348l74 348h97l-74 -348l369 348h134l-333 -296l188 -422h-126l-147 354l-110 -102z" />
    <glyph glyph-name="AE" unicode="&#x416;" horiz-adv-x="999" 
d="M485 0h-97l54 252l-68 102l-297 -354h-126l368 422l-207 296h134l221 -348l74 348h97l-74 -348l369 348h134l-333 -296l188 -422h-126l-147 354l-110 -102z" />
    <glyph glyph-name="Ccedilla" unicode="&#xc7;" horiz-adv-x="667" 
d="M348 415q69 0 125 27q65 31 76 84q3 17 3 30q0 42 -30 66q-38 30 -116 30q-73 0 -128 -31q-68 -38 -87 -115h-91q17 83 84 144q93 85 250 85q98 0 156.5 -44t58.5 -118q0 -21 -4 -40q-15 -68 -72 -110q-42 -31 -92 -40q48 -8 84 -41q43 -40 43 -98q0 -8 -1.5 -18
t-2.5 -16q-24 -113 -129 -175q-90 -54 -204 -54q-142 0 -203 70q-45 51 -45 133q0 16 1 25.5t4 22.5h91q-5 -25 -5 -42q0 -67 54 -99q45 -27 120 -27q68 0 128 32q74 40 89 110q3 15 3 28q0 57 -58 84q-47 22 -125 22l-71 -2l17 79q17 -2 43.5 -2h33.5z" />
    <glyph glyph-name="Ccedilla" unicode="&#x417;" horiz-adv-x="667" 
d="M348 415q69 0 125 27q65 31 76 84q3 17 3 30q0 42 -30 66q-38 30 -116 30q-73 0 -128 -31q-68 -38 -87 -115h-91q17 83 84 144q93 85 250 85q98 0 156.5 -44t58.5 -118q0 -21 -4 -40q-15 -68 -72 -110q-42 -31 -92 -40q48 -8 84 -41q43 -40 43 -98q0 -8 -1.5 -18
t-2.5 -16q-24 -113 -129 -175q-90 -54 -204 -54q-142 0 -203 70q-45 51 -45 133q0 16 1 25.5t4 22.5h91q-5 -25 -5 -42q0 -67 54 -99q45 -27 120 -27q68 0 128 32q74 40 89 110q3 15 3 28q0 57 -58 84q-47 22 -125 22l-71 -2l17 79q17 -2 43.5 -2h33.5z" />
    <glyph glyph-name="Egrave" unicode="&#xc8;" horiz-adv-x="722" 
d="M134 138l485 580h115l-153 -718h-94l123 580l-490 -580h-109l153 718h94z" />
    <glyph glyph-name="Egrave" unicode="&#x418;" horiz-adv-x="722" 
d="M134 138l485 580h115l-153 -718h-94l123 580l-490 -580h-109l153 718h94z" />
    <glyph glyph-name="Eacute" unicode="&#xc9;" horiz-adv-x="722" 
d="M134 138l485 580h115l-153 -718h-94l123 580l-490 -580h-109l153 718h94zM632 847q-23 -71 -73 -105q-46 -31 -115 -31q-72 0 -101 39q-20 27 -20 73q0 18 1 24h49q0 -13 2.5 -25t11.5 -23q9 -14 27.5 -22.5t49.5 -8.5q52 0 84 28q18 16 36 51h48z" />
    <glyph glyph-name="Eacute" unicode="&#x419;" horiz-adv-x="722" 
d="M134 138l485 580h115l-153 -718h-94l123 580l-490 -580h-109l153 718h94zM632 847q-23 -71 -73 -105q-46 -31 -115 -31q-72 0 -101 39q-20 27 -20 73q0 18 1 24h49q0 -13 2.5 -25t11.5 -23q9 -14 27.5 -22.5t49.5 -8.5q52 0 84 28q18 16 36 51h48z" />
    <glyph glyph-name="Ecircumflex" unicode="&#xca;" horiz-adv-x="667" 
d="M108 0h-97l153 718h97l-74 -348l422 348h134l-361 -290l216 -428h-126l-174 360l-136 -108z" />
    <glyph glyph-name="Ecircumflex" unicode="&#x41a;" horiz-adv-x="667" 
d="M108 0h-97l153 718h97l-74 -348l422 348h134l-361 -290l216 -428h-126l-174 360l-136 -108z" />
    <glyph glyph-name="Edieresis" unicode="&#xcb;" horiz-adv-x="667" 
d="M274 632l-93 -438q-26 -121 -97 -171q-53 -37 -138 -37l19 87q58 0 88 35q24 28 36 86l112 524h480l-153 -718h-97l134 632h-291z" />
    <glyph glyph-name="Edieresis" unicode="&#x41b;" horiz-adv-x="667" 
d="M274 632l-93 -438q-26 -121 -97 -171q-53 -37 -138 -37l19 87q58 0 88 35q24 28 36 86l112 524h480l-153 -718h-97l134 632h-291z" />
    <glyph glyph-name="Igrave" unicode="&#xcc;" horiz-adv-x="833" 
d="M605 0l90 424l40 179l-332 -603h-96l-74 602l-38 -178l-90 -424h-94l153 718h139l76 -607l335 607h138l-153 -718h-94z" />
    <glyph glyph-name="Igrave" unicode="&#x41c;" horiz-adv-x="833" 
d="M605 0l90 424l40 179l-332 -603h-96l-74 602l-38 -178l-90 -424h-94l153 718h139l76 -607l335 607h138l-153 -718h-94z" />
    <glyph glyph-name="Iacute" unicode="&#xcd;" horiz-adv-x="722" 
d="M636 718h97l-153 -718h-97l71 335h-375l-71 -335h-97l153 718h97l-64 -297h375z" />
    <glyph glyph-name="Iacute" unicode="&#x41d;" horiz-adv-x="722" 
d="M636 718h97l-153 -718h-97l71 335h-375l-71 -335h-97l153 718h97l-64 -297h375z" />
    <glyph glyph-name="Icircumflex" unicode="&#xce;" horiz-adv-x="778" 
d="M320 -19q-148 0 -219 88q-59 73 -59 192q0 23 3 49t8 49q31 145 125 247q121 131 303 131q148 0 219 -88q58 -72 58 -192q0 -23 -3 -49t-8 -49q-31 -144 -125 -247q-120 -131 -302 -131zM462 651q-116 0 -200 -81t-112 -211q-9 -45 -9 -85q0 -95 51 -151t146 -56
q116 0 200 81t112 211q9 45 9 85q0 95 -51 151t-146 56z" />
    <glyph glyph-name="Icircumflex" unicode="&#x41e;" horiz-adv-x="778" 
d="M320 -19q-148 0 -219 88q-59 73 -59 192q0 23 3 49t8 49q31 145 125 247q121 131 303 131q148 0 219 -88q58 -72 58 -192q0 -23 -3 -49t-8 -49q-31 -144 -125 -247q-120 -131 -302 -131zM462 651q-116 0 -200 -81t-112 -211q-9 -45 -9 -85q0 -95 51 -151t146 -56
q116 0 200 81t112 211q9 45 9 85q0 95 -51 151t-146 56z" />
    <glyph glyph-name="Idieresis" unicode="&#xcf;" horiz-adv-x="722" 
d="M733 718l-153 -718h-97l134 632h-375l-134 -632h-97l153 718h569z" />
    <glyph glyph-name="Idieresis" unicode="&#x41f;" horiz-adv-x="722" 
d="M733 718l-153 -718h-97l134 632h-375l-134 -632h-97l153 718h569z" />
    <glyph glyph-name="Eth" unicode="&#xd0;" horiz-adv-x="667" 
d="M108 -1h-97l152 718h334q83 0 129 -42t46 -112q0 -11 -1 -23t-4 -25q-18 -86 -78 -144q-72 -69 -180 -69h-237zM190 385h204q70 0 112 28q47 31 61 101q4 17 4 35q0 45 -32 65t-88 20h-208z" />
    <glyph glyph-name="Eth" unicode="&#x420;" horiz-adv-x="667" 
d="M108 -1h-97l152 718h334q83 0 129 -42t46 -112q0 -11 -1 -23t-4 -25q-18 -86 -78 -144q-72 -69 -180 -69h-237zM190 385h204q70 0 112 28q47 31 61 101q4 17 4 35q0 45 -32 65t-88 20h-208z" />
    <glyph glyph-name="Ntilde" unicode="&#xd1;" horiz-adv-x="722" 
d="M622 502q0 85 -59 122q-42 27 -111 27q-103 0 -181 -71q-85 -77 -114 -214q-13 -65 -13 -111q0 -89 42 -136q47 -52 145 -52q65 0 121 35q81 50 126 162h94q-44 -122 -128 -194q-63 -54 -146 -76q-49 -13 -100 -13q-112 0 -179 60q-77 69 -77 201q0 29 3 57t11 64
q36 169 147.5 271.5t267.5 102.5q123 0 188 -64q58 -57 58 -148v-14q-1 -6 -1 -9h-94z" />
    <glyph glyph-name="Ntilde" unicode="&#x421;" horiz-adv-x="722" 
d="M622 502q0 85 -59 122q-42 27 -111 27q-103 0 -181 -71q-85 -77 -114 -214q-13 -65 -13 -111q0 -89 42 -136q47 -52 145 -52q65 0 121 35q81 50 126 162h94q-44 -122 -128 -194q-63 -54 -146 -76q-49 -13 -100 -13q-112 0 -179 60q-77 69 -77 201q0 29 3 57t11 64
q36 169 147.5 271.5t267.5 102.5q123 0 188 -64q58 -57 58 -148v-14q-1 -6 -1 -9h-94z" />
    <glyph glyph-name="Ograve" unicode="&#xd2;" horiz-adv-x="611" 
d="M102 718h583l-19 -86h-243l-134 -632h-97l134 632h-243z" />
    <glyph glyph-name="Ograve" unicode="&#x422;" horiz-adv-x="611" 
d="M102 718h583l-19 -86h-243l-134 -632h-97l134 632h-243z" />
    <glyph glyph-name="Oacute" unicode="&#xd3;" horiz-adv-x="667" 
d="M192 -12q-16 -4 -33 -4t-31.5 3.5t-30.5 8.5l19 89q22 -14 46 -14q39 0 64 35l61 86l-182 526h121l135 -420l272 420h111l-431 -633q-28 -41 -54 -63q-31 -27 -67 -34z" />
    <glyph glyph-name="Oacute" unicode="&#x423;" horiz-adv-x="667" 
d="M192 -12q-16 -4 -33 -4t-31.5 3.5t-30.5 8.5l19 89q22 -14 46 -14q39 0 64 35l61 86l-182 526h121l135 -420l272 420h111l-431 -633q-28 -41 -54 -63q-31 -27 -67 -34z" />
    <glyph glyph-name="Ocircumflex" unicode="&#xd4;" horiz-adv-x="833" 
d="M537 643q138 0 212 -66q67 -60 67 -158q0 -12 -2 -27.5t-5 -32.5q-25 -119 -124 -198q-109 -87 -269 -87l-16 -74h-96l16 74q-139 0 -212 66q-67 60 -67 159q0 30 6 60q26 119 125 198q109 87 269 87l16 74h96zM521 568l-89 -418q106 0 177 49q78 54 100 160q7 29 7 58
q0 76 -52 113.5t-143 37.5zM336 150l89 418q-106 0 -177 -49q-78 -54 -101 -160q-6 -32 -6 -57q0 -77 54 -116q50 -36 141 -36z" />
    <glyph glyph-name="Ocircumflex" unicode="&#x424;" horiz-adv-x="833" 
d="M537 643q138 0 212 -66q67 -60 67 -158q0 -12 -2 -27.5t-5 -32.5q-25 -119 -124 -198q-109 -87 -269 -87l-16 -74h-96l16 74q-139 0 -212 66q-67 60 -67 159q0 30 6 60q26 119 125 198q109 87 269 87l16 74h96zM521 568l-89 -418q106 0 177 49q78 54 100 160q7 29 7 58
q0 76 -52 113.5t-143 37.5zM336 150l89 418q-106 0 -177 -49q-78 -54 -101 -160q-6 -32 -6 -57q0 -77 54 -116q50 -36 141 -36z" />
    <glyph glyph-name="Otilde" unicode="&#xd5;" horiz-adv-x="667" 
d="M583 0h-120l-133 295l-259 -295h-117l332 368l-166 350h122l122 -275l243 275h116l-318 -350z" />
    <glyph glyph-name="Otilde" unicode="&#x425;" horiz-adv-x="667" 
d="M583 0h-120l-133 295l-259 -295h-117l332 368l-166 350h122l122 -275l243 275h116l-318 -350z" />
    <glyph glyph-name="Odieresis" unicode="&#xd6;" horiz-adv-x="722" 
d="M547 0h-536l153 718h97l-135 -632h375l135 632h97l-135 -632h55l-46 -220h-88z" />
    <glyph glyph-name="Odieresis" unicode="&#x426;" horiz-adv-x="722" 
d="M547 0h-536l153 718h97l-135 -632h375l135 632h97l-135 -632h55l-46 -220h-88z" />
    <glyph glyph-name="multiply" unicode="&#xd7;" horiz-adv-x="722" 
d="M636 718h97l-153 -718h-97l71 335q-54 -19 -88 -28q-107 -29 -184 -29q-82 0 -125 27q-53 33 -53 109q0 17 1 27t6 31l53 246h97l-51 -237q-3 -17 -3 -31q0 -43 32 -61t87 -18q65 0 162 25q32 8 84 25z" />
    <glyph glyph-name="multiply" unicode="&#x427;" horiz-adv-x="722" 
d="M636 718h97l-153 -718h-97l71 335q-54 -19 -88 -28q-107 -29 -184 -29q-82 0 -125 27q-53 33 -53 109q0 17 1 27t6 31l53 246h97l-51 -237q-3 -17 -3 -31q0 -43 32 -61t87 -18q65 0 162 25q32 8 84 25z" />
    <glyph glyph-name="Oslash" unicode="&#xd8;" horiz-adv-x="852" 
d="M423 86h201l135 632h97l-153 -718h-692l153 718h97l-135 -632h200l135 632h97z" />
    <glyph glyph-name="Oslash" unicode="&#x428;" horiz-adv-x="852" 
d="M423 86h201l135 632h97l-153 -718h-692l153 718h97l-135 -632h200l135 632h97z" />
    <glyph glyph-name="Ugrave" unicode="&#xd9;" horiz-adv-x="852" 
d="M670 0h-659l153 718h97l-135 -632h200l135 632h97l-135 -632h201l135 632h97l-135 -632h55l-46 -220h-88z" />
    <glyph glyph-name="Ugrave" unicode="&#x429;" horiz-adv-x="852" 
d="M670 0h-659l153 718h97l-135 -632h200l135 632h97l-135 -632h201l135 632h97l-135 -632h55l-46 -220h-88z" />
    <glyph glyph-name="Uacute" unicode="&#xda;" horiz-adv-x="722" 
d="M251 415h237q90 0 135 -49q39 -42 39 -112q0 -26 -6 -52q-19 -87 -90 -144.5t-166 -57.5h-334l135 636h-132l18 82h229zM181 83h208q66 0 106 25q47 30 61 95q5 25 5 39q0 48 -31.5 69t-91.5 21h-204z" />
    <glyph glyph-name="Uacute" unicode="&#x42a;" horiz-adv-x="722" 
d="M251 415h237q90 0 135 -49q39 -42 39 -112q0 -26 -6 -52q-19 -87 -90 -144.5t-166 -57.5h-334l135 636h-132l18 82h229zM181 83h208q66 0 106 25q47 30 61 95q5 25 5 39q0 48 -31.5 69t-91.5 21h-204z" />
    <glyph glyph-name="Ucircumflex" unicode="&#xdb;" horiz-adv-x="870" 
d="M196 415h226q90 0 135 -49q39 -42 39 -112q0 -26 -6 -52q-19 -89 -88.5 -145.5t-167.5 -56.5h-323l153 718h97zM729 0h-97l153 718h97zM126 83h197q66 0 106 25q47 30 61 95q5 25 5 39q0 48 -31.5 69t-91.5 21h-193z" />
    <glyph glyph-name="Ucircumflex" unicode="&#x42b;" horiz-adv-x="870" 
d="M196 415h226q90 0 135 -49q39 -42 39 -112q0 -26 -6 -52q-19 -89 -88.5 -145.5t-167.5 -56.5h-323l153 718h97zM729 0h-97l153 718h97zM126 83h197q66 0 106 25q47 30 61 95q5 25 5 39q0 48 -31.5 69t-91.5 21h-193z" />
    <glyph glyph-name="Udieresis" unicode="&#xdc;" horiz-adv-x="667" 
d="M196 415h237q90 0 135 -49q39 -42 39 -112q0 -26 -6 -52q-19 -89 -88.5 -145.5t-167.5 -56.5h-334l153 718h97zM126 83h208q66 0 106 25q47 30 61 95q5 25 5 39q0 48 -31.5 69t-91.5 21h-204z" />
    <glyph glyph-name="Udieresis" unicode="&#x42c;" horiz-adv-x="667" 
d="M196 415h237q90 0 135 -49q39 -42 39 -112q0 -26 -6 -52q-19 -89 -88.5 -145.5t-167.5 -56.5h-334l153 718h97zM126 83h208q66 0 106 25q47 30 61 95q5 25 5 39q0 48 -31.5 69t-91.5 21h-204z" />
    <glyph glyph-name="Yacute" unicode="&#xdd;" horiz-adv-x="722" 
d="M598 407q3 26 3 48q0 95 -45.5 145.5t-129.5 50.5q-72 0 -127 -27q-76 -37 -115 -122h-94q40 99 126 162q99 73 229 73q124 0 192 -73q65 -70 65 -192q0 -52 -12 -109q-41 -192 -163 -294q-106 -88 -241 -88q-84 0 -150 39q-110 65 -110 214h94q0 -91 66 -135
q48 -32 113 -32q110 0 183 73q66 66 99 186h-392l18 81h391z" />
    <glyph glyph-name="Yacute" unicode="&#x42d;" horiz-adv-x="722" 
d="M598 407q3 26 3 48q0 95 -45.5 145.5t-129.5 50.5q-72 0 -127 -27q-76 -37 -115 -122h-94q40 99 126 162q99 73 229 73q124 0 192 -73q65 -70 65 -192q0 -52 -12 -109q-41 -192 -163 -294q-106 -88 -241 -88q-84 0 -150 39q-110 65 -110 214h94q0 -91 66 -135
q48 -32 113 -32q110 0 183 73q66 66 99 186h-392l18 81h391z" />
    <glyph glyph-name="Thorn" unicode="&#xde;" horiz-adv-x="963" 
d="M269 335h-90l-71 -335h-97l153 718h97l-64 -297h91q47 132 133 213q109 103 262 103q139 0 206 -86q54 -70 54 -187q0 -53 -11 -105q-31 -144 -124 -247q-119 -131 -296 -131q-133 0 -197 87q-52 71 -52 190q0 39 6 77zM664 651q-110 0 -189 -82q-75 -78 -103 -210
q-10 -46 -10 -91q0 -93 46 -147t132 -54q110 0 189 82q75 78 103 210q10 46 10 91q0 93 -46 147t-132 54z" />
    <glyph glyph-name="Thorn" unicode="&#x42e;" horiz-adv-x="963" 
d="M269 335h-90l-71 -335h-97l153 718h97l-64 -297h91q47 132 133 213q109 103 262 103q139 0 206 -86q54 -70 54 -187q0 -53 -11 -105q-31 -144 -124 -247q-119 -131 -296 -131q-133 0 -197 87q-52 71 -52 190q0 39 6 77zM664 651q-110 0 -189 -82q-75 -78 -103 -210
q-10 -46 -10 -91q0 -93 46 -147t132 -54q110 0 189 82q75 78 103 210q10 46 10 91q0 93 -46 147t-132 54z" />
    <glyph glyph-name="germandbls" unicode="&#xdf;" horiz-adv-x="722" 
d="M539 308h-147l-282 -308h-127l290 309q-67 0 -111 34q-54 41 -54 122q0 26 6 56q22 105 106 155q70 42 172 42h332l-153 -718h-97zM609 635h-242q-53 0 -86 -18q-53 -29 -69 -102q-2 -8 -3 -18t-1 -18q0 -51 38 -72q29 -16 86 -16h225z" />
    <glyph glyph-name="germandbls" unicode="&#x42f;" horiz-adv-x="722" 
d="M539 308h-147l-282 -308h-127l290 309q-67 0 -111 34q-54 41 -54 122q0 26 6 56q22 105 106 155q70 42 172 42h332l-153 -718h-97zM609 635h-242q-53 0 -86 -18q-53 -29 -69 -102q-2 -8 -3 -18t-1 -18q0 -51 38 -72q29 -16 86 -16h225z" />
    <glyph glyph-name="agrave" unicode="&#xe0;" 
d="M74 364q23 91 87 132.5t166 41.5q56 0 97 -17q70 -29 70 -96v-15q-3 -12 -4 -18l-64 -301q-1 -4 -1 -10q0 -21 24 -21l30 4l-14 -64q-15 -4 -27 -7t-23 -3q-45 0 -61.5 15.5t-16.5 43.5q0 7 2 21q-41 -36 -81 -56q-59 -29 -126 -29q-62 0 -99 32t-37 85q0 8 1.5 18
t2.5 16q11 52 44 91q53 61 150 73l149 18q21 2 33 12q19 15 26 50q2 14 2 19q0 66 -107 66q-66 0 -103 -35q-22 -21 -39 -66h-81zM376 267q-13 -9 -44.5 -16t-107.5 -17q-48 -6 -76 -20q-45 -22 -54 -65q-3 -15 -3 -28q0 -63 78 -63q63 0 120.5 36t67.5 87z" />
    <glyph glyph-name="agrave" unicode="&#x430;" 
d="M74 364q23 91 87 132.5t166 41.5q56 0 97 -17q70 -29 70 -96v-15q-3 -12 -4 -18l-64 -301q-1 -4 -1 -10q0 -21 24 -21l30 4l-14 -64q-15 -4 -27 -7t-23 -3q-45 0 -61.5 15.5t-16.5 43.5q0 7 2 21q-41 -36 -81 -56q-59 -29 -126 -29q-62 0 -99 32t-37 85q0 8 1.5 18
t2.5 16q11 52 44 91q53 61 150 73l149 18q21 2 33 12q19 15 26 50q2 14 2 19q0 66 -107 66q-66 0 -103 -35q-22 -21 -39 -66h-81zM376 267q-13 -9 -44.5 -16t-107.5 -17q-48 -6 -76 -20q-45 -22 -54 -65q-3 -15 -3 -28q0 -63 78 -63q63 0 120.5 36t67.5 87z" />
    <glyph glyph-name="aacute" unicode="&#xe1;" 
d="M516 719h62q-3 -16 -6 -26q-11 -30 -36 -48q-34 -25 -146.5 -33t-158.5 -41q-35 -25 -62 -70q-13 -21 -31 -62q52 46 86 62q46 22 115 22q87 0 135 -60q44 -55 44 -141q0 -22 -1 -33.5t-6 -34.5q-23 -109 -99 -184q-86 -85 -209 -85q-75 0 -123 44q-59 54 -59 162
q0 39 2 55.5t10 51.5q35 161 93 248q50 75 127 118q35 19 92.5 25.5t115.5 6.5h19.5h7.5q23 3 28 23zM420 254q2 10 4 25.5t2 29.5q0 58 -22 92q-30 46 -95 46q-83 0 -140 -76q-39 -52 -53 -117q-2 -10 -4 -25.5t-2 -29.5q0 -58 22 -92q30 -46 95 -46q83 0 140 76
q39 52 53 117z" />
    <glyph glyph-name="aacute" unicode="&#x431;" 
d="M516 719h62q-3 -16 -6 -26q-11 -30 -36 -48q-34 -25 -146.5 -33t-158.5 -41q-35 -25 -62 -70q-13 -21 -31 -62q52 46 86 62q46 22 115 22q87 0 135 -60q44 -55 44 -141q0 -22 -1 -33.5t-6 -34.5q-23 -109 -99 -184q-86 -85 -209 -85q-75 0 -123 44q-59 54 -59 162
q0 39 2 55.5t10 51.5q35 161 93 248q50 75 127 118q35 19 92.5 25.5t115.5 6.5h19.5h7.5q23 3 28 23zM420 254q2 10 4 25.5t2 29.5q0 58 -22 92q-30 46 -95 46q-83 0 -140 -76q-39 -52 -53 -117q-2 -10 -4 -25.5t-2 -29.5q0 -58 22 -92q30 -46 95 -46q83 0 140 76
q39 52 53 117z" />
    <glyph glyph-name="acircumflex" unicode="&#xe2;" horiz-adv-x="552" 
d="M114 523h257q69 0 102 -28q29 -25 29 -70q0 -8 -1.5 -18t-2.5 -16q-7 -33 -29 -60q-30 -36 -83 -55q42 -12 61 -25q35 -25 35 -69q0 -13 -3 -28q-15 -69 -65 -108q-59 -46 -160 -46h-251zM155 303h129q58 0 86 17.5t38 65.5q2 14 2 19q0 24 -20.5 34.5t-72.5 10.5h-130z
M107 73h158q60 0 88 19t37 64q3 12 3 22q0 29 -25.5 42t-83.5 13h-143z" />
    <glyph glyph-name="acircumflex" unicode="&#x432;" horiz-adv-x="552" 
d="M114 523h257q69 0 102 -28q29 -25 29 -70q0 -8 -1.5 -18t-2.5 -16q-7 -33 -29 -60q-30 -36 -83 -55q42 -12 61 -25q35 -25 35 -69q0 -13 -3 -28q-15 -69 -65 -108q-59 -46 -160 -46h-251zM155 303h129q58 0 86 17.5t38 65.5q2 14 2 19q0 24 -20.5 34.5t-72.5 10.5h-130z
M107 73h158q60 0 88 19t37 64q3 12 3 22q0 29 -25.5 42t-83.5 13h-143z" />
    <glyph glyph-name="atilde" unicode="&#xe3;" horiz-adv-x="407" 
d="M187 450l-96 -450h-88l111 523h340l-15 -73h-252z" />
    <glyph glyph-name="atilde" unicode="&#x433;" horiz-adv-x="407" 
d="M187 450l-96 -450h-88l111 523h340l-15 -73h-252z" />
    <glyph glyph-name="adieresis" unicode="&#xe4;" horiz-adv-x="515" 
d="M13 0l-28 -134h-78l44 207h36q13 6 30 34q21 33 28 66l74 350h374l-95 -450h47l-44 -207h-78l28 134h-338zM310 73l80 377h-203l-59 -277q-9 -39 -27 -67q-12 -18 -29 -33h238z" />
    <glyph glyph-name="adieresis" unicode="&#x434;" horiz-adv-x="515" 
d="M13 0l-28 -134h-78l44 207h36q13 6 30 34q21 33 28 66l74 350h374l-95 -450h47l-44 -207h-78l28 134h-338zM310 73l80 377h-203l-59 -277q-9 -39 -27 -67q-12 -18 -29 -33h238z" />
    <glyph glyph-name="aring" unicode="&#xe5;" 
d="M479 164q-9 -28 -36 -64q-38 -50 -88 -79q-28 -16 -53 -24q-40 -12 -96 -12q-90 0 -138 51t-48 137q0 29 1.5 40t6.5 34q27 128 104 206q84 85 208 85q87 0 130.5 -50.5t43.5 -143.5q0 -46 -13 -111h-382q-7 -29 -7 -58q0 -114 122 -114q56 0 105 37q42 32 52 66h88z
M424 303q1 11 2.5 21t1.5 22q0 52 -25 80q-29 33 -91 33q-60 0 -112.5 -46.5t-66.5 -109.5h291z" />
    <glyph glyph-name="aring" unicode="&#x435;" 
d="M479 164q-9 -28 -36 -64q-38 -50 -88 -79q-28 -16 -53 -24q-40 -12 -96 -12q-90 0 -138 51t-48 137q0 29 1.5 40t6.5 34q27 128 104 206q84 85 208 85q87 0 130.5 -50.5t43.5 -143.5q0 -46 -13 -111h-382q-7 -29 -7 -58q0 -114 122 -114q56 0 105 37q42 32 52 66h88z
M424 303q1 11 2.5 21t1.5 22q0 52 -25 80q-29 33 -91 33q-60 0 -112.5 -46.5t-66.5 -109.5h291z" />
    <glyph glyph-name="ae" unicode="&#xe6;" horiz-adv-x="722" 
d="M449 523l-47 -221l242 221h112l-256 -215l157 -308h-113l-121 244l-43 -46l-42 -198h-85l42 198l-23 46l-225 -244h-113l287 308l-164 215h112l148 -221l47 221h85z" />
    <glyph glyph-name="ae" unicode="&#x436;" horiz-adv-x="722" 
d="M449 523l-47 -221l242 221h112l-256 -215l157 -308h-113l-121 244l-43 -46l-42 -198h-85l42 198l-23 46l-225 -244h-113l287 308l-164 215h112l148 -221l47 221h85z" />
    <glyph glyph-name="ccedilla" unicode="&#xe7;" horiz-adv-x="500" 
d="M242 306q52 0 87 19t43 58q3 14 3 23q0 34 -25 46.5t-67 12.5q-59 0 -95.5 -23t-47.5 -73h-83q12 59 55 100q68 66 194 66q77 0 118.5 -34t41.5 -83q0 -15 -2 -22q-13 -61 -55 -90q-25 -18 -70 -26q45 -7 70 -27q31 -25 31 -70q0 -13 -3 -30q-17 -79 -90 -125
q-67 -42 -159 -42q-109 0 -156 49q-34 35 -34 93q0 8 1 17t4 24h83q-2 -7 -3 -17t-1 -17q0 -41 30.5 -59.5t89.5 -18.5q56 0 90 19q43 24 54 76q3 14 3 25q0 40 -38 55q-27 11 -88 11l-66 -2l14 66z" />
    <glyph glyph-name="ccedilla" unicode="&#x437;" horiz-adv-x="500" 
d="M242 306q52 0 87 19t43 58q3 14 3 23q0 34 -25 46.5t-67 12.5q-59 0 -95.5 -23t-47.5 -73h-83q12 59 55 100q68 66 194 66q77 0 118.5 -34t41.5 -83q0 -15 -2 -22q-13 -61 -55 -90q-25 -18 -70 -26q45 -7 70 -27q31 -25 31 -70q0 -13 -3 -30q-17 -79 -90 -125
q-67 -42 -159 -42q-109 0 -156 49q-34 35 -34 93q0 8 1 17t4 24h83q-2 -7 -3 -17t-1 -17q0 -41 30.5 -59.5t89.5 -18.5q56 0 90 19q43 24 54 76q3 14 3 25q0 40 -38 55q-27 11 -88 11l-66 -2l14 66z" />
    <glyph glyph-name="egrave" unicode="&#xe8;" 
d="M119 131l309 392h107l-111 -523h-88l83 392l-314 -392h-102l111 523h88z" />
    <glyph glyph-name="egrave" unicode="&#x438;" 
d="M119 131l309 392h107l-111 -523h-88l83 392l-314 -392h-102l111 523h88z" />
    <glyph glyph-name="eacute" unicode="&#xe9;" 
d="M119 131l309 392h107l-111 -523h-88l83 392l-314 -392h-102l111 523h88zM523 731q-22 -71 -73 -105q-46 -31 -115 -31q-72 0 -101 39q-20 27 -20 73q0 18 1 24h49q2 -14 4 -25.5t11 -24t27.5 -21t49.5 -8.5q42 0 69 16t50 63h48z" />
    <glyph glyph-name="eacute" unicode="&#x439;" 
d="M119 131l309 392h107l-111 -523h-88l83 392l-314 -392h-102l111 523h88zM523 731q-22 -71 -73 -105q-46 -31 -115 -31q-72 0 -101 39q-20 27 -20 73q0 18 1 24h49q2 -14 4 -25.5t11 -24t27.5 -21t49.5 -8.5q42 0 69 16t50 63h48z" />
    <glyph glyph-name="ecircumflex" unicode="&#xea;" horiz-adv-x="500" 
d="M436 0h-113l-141 244l-53 -46l-42 -198h-85l111 523h85l-47 -221l272 221h112l-276 -215z" />
    <glyph glyph-name="ecircumflex" unicode="&#x43a;" horiz-adv-x="500" 
d="M436 0h-113l-141 244l-53 -46l-42 -198h-85l111 523h85l-47 -221l272 221h112l-276 -215z" />
    <glyph glyph-name="edieresis" unicode="&#xeb;" horiz-adv-x="515" 
d="M187 450l-66 -309q-13 -57 -45 -94q-48 -55 -131 -55l18 81q35 0 50.5 13.5t24.5 54.5l81 382h374l-111 -523h-88l96 450h-203z" />
    <glyph glyph-name="edieresis" unicode="&#x43b;" horiz-adv-x="515" 
d="M187 450l-66 -309q-13 -57 -45 -94q-48 -55 -131 -55l18 81q35 0 50.5 13.5t24.5 54.5l81 382h374l-111 -523h-88l96 450h-203z" />
    <glyph glyph-name="igrave" unicode="&#xec;" horiz-adv-x="722" 
d="M321 112l248 411h131l-111 -523l-85 -1l64 304q8 39 19 77q3 14 10 35h-7l-252 -415h-84l-76 415h-7q-2 -21 -4 -34q-5 -31 -15 -78l-64 -303h-85l111 523h131z" />
    <glyph glyph-name="igrave" unicode="&#x43c;" horiz-adv-x="722" 
d="M321 112l248 411h131l-111 -523l-85 -1l64 304q8 39 19 77q3 14 10 35h-7l-252 -415h-84l-76 415h-7q-2 -21 -4 -34q-5 -31 -15 -78l-64 -303h-85l111 523h131z" />
    <glyph glyph-name="iacute" unicode="&#xed;" 
d="M447 523h88l-111 -523h-88l50 237h-245l-50 -237h-88l111 523h88l-46 -216h245z" />
    <glyph glyph-name="iacute" unicode="&#x43d;" 
d="M447 523h88l-111 -523h-88l50 237h-245l-50 -237h-88l111 523h88l-46 -216h245z" />
    <glyph glyph-name="icircumflex" unicode="&#xee;" 
d="M327 538q97 0 148 -61q45 -54 45 -143q0 -34 -8 -72q-24 -112 -99 -189q-85 -87 -203 -87q-97 0 -147 60q-45 54 -45 142q0 34 8 74q23 112 98 189q85 87 203 87zM226 62q84 0 139 73q40 53 56 127q3 14 5 29.5t2 33.5q0 59 -23 93q-30 44 -94 44q-83 0 -138 -73
q-40 -54 -56 -127q-7 -32 -7 -64q0 -59 23 -93q29 -43 93 -43z" />
    <glyph glyph-name="icircumflex" unicode="&#x43e;" 
d="M327 538q97 0 148 -61q45 -54 45 -143q0 -34 -8 -72q-24 -112 -99 -189q-85 -87 -203 -87q-97 0 -147 60q-45 54 -45 142q0 34 8 74q23 112 98 189q85 87 203 87zM226 62q84 0 139 73q40 53 56 127q3 14 5 29.5t2 33.5q0 59 -23 93q-30 44 -94 44q-83 0 -138 -73
q-40 -54 -56 -127q-7 -32 -7 -64q0 -59 23 -93q29 -43 93 -43z" />
    <glyph glyph-name="idieresis" unicode="&#xef;" 
d="M535 523l-111 -523h-88l96 450h-245l-96 -450h-88l111 523h421z" />
    <glyph glyph-name="idieresis" unicode="&#x43f;" 
d="M535 523l-111 -523h-88l96 450h-245l-96 -450h-88l111 523h421z" />
    <glyph glyph-name="eth" unicode="&#xf0;" 
d="M112 523h83l-16 -74q51 51 86 68q43 21 91 21q83 0 127 -50.5t44 -134.5q0 -29 -1.5 -41.5t-6.5 -34.5q-25 -115 -89 -193q-81 -99 -203 -99q-49 0 -80.5 20t-43.5 50l-58 -262h-88zM241 61q69 0 119 58q45 53 65 144q4 18 7 38.5t3 42.5q0 51 -21 79q-27 36 -90 36
q-84 0 -135 -79q-35 -54 -54 -143q-6 -32 -6 -56q0 -63 38 -95q30 -25 74 -25z" />
    <glyph glyph-name="eth" unicode="&#x440;" 
d="M112 523h83l-16 -74q51 51 86 68q43 21 91 21q83 0 127 -50.5t44 -134.5q0 -29 -1.5 -41.5t-6.5 -34.5q-25 -115 -89 -193q-81 -99 -203 -99q-49 0 -80.5 20t-43.5 50l-58 -262h-88zM241 61q69 0 119 58q45 53 65 144q4 18 7 38.5t3 42.5q0 51 -21 79q-27 36 -90 36
q-84 0 -135 -79q-35 -54 -54 -143q-6 -32 -6 -56q0 -63 38 -95q30 -25 74 -25z" />
    <glyph glyph-name="ntilde" unicode="&#xf1;" horiz-adv-x="500" 
d="M401 347q0 55 -23 83.5t-77 28.5q-76 0 -127 -63q-42 -52 -59 -134q-10 -43 -10 -81q0 -55 22 -84q27 -36 88 -36q46 0 86.5 32.5t64.5 91.5h85q-25 -79 -79 -131q-72 -69 -176 -69q-90 0 -138 51t-48 137q0 29 1.5 40t6.5 34q27 128 104 206q84 85 208 85q82 0 123 -48
q35 -41 35 -108v-13q0 -8 -2 -22h-85z" />
    <glyph glyph-name="ntilde" unicode="&#x441;" horiz-adv-x="500" 
d="M401 347q0 55 -23 83.5t-77 28.5q-76 0 -127 -63q-42 -52 -59 -134q-10 -43 -10 -81q0 -55 22 -84q27 -36 88 -36q46 0 86.5 32.5t64.5 91.5h85q-25 -79 -79 -131q-72 -69 -176 -69q-90 0 -138 51t-48 137q0 29 1.5 40t6.5 34q27 128 104 206q84 85 208 85q82 0 123 -48
q35 -41 35 -108v-13q0 -8 -2 -22h-85z" />
    <glyph glyph-name="ograve" unicode="&#xf2;" horiz-adv-x="444" 
d="M297 450l-96 -450h-88l96 450h-167l15 73h422l-15 -73h-167z" />
    <glyph glyph-name="ograve" unicode="&#x442;" horiz-adv-x="444" 
d="M297 450l-96 -450h-88l96 450h-167l15 73h422l-15 -73h-167z" />
    <glyph glyph-name="oacute" unicode="&#xf3;" horiz-adv-x="500" 
d="M438 523h97q-49 -86 -97 -171q-81 -143 -98 -171q-30 -51 -102 -171q-97 -160 -132.5 -192t-119.5 -32q-10 0 -20 3t-16 5l17 80q9 -4 21.5 -6.5t29.5 -2.5q33 0 51 19t68 102l-80 537h100l49 -426z" />
    <glyph glyph-name="oacute" unicode="&#x443;" horiz-adv-x="500" 
d="M438 523h97q-49 -86 -97 -171q-81 -143 -98 -171q-30 -51 -102 -171q-97 -160 -132.5 -192t-119.5 -32q-10 0 -20 3t-16 5l17 80q9 -4 21.5 -6.5t29.5 -2.5q33 0 51 19t68 102l-80 537h100l49 -426z" />
    <glyph glyph-name="ocircumflex" unicode="&#xf4;" horiz-adv-x="722" 
d="M264 55q-28 -32 -54 -49q-31 -21 -62 -21q-74 0 -108 49q-28 41 -28 117q0 55 16 126q23 110 74 178q61 83 151 83q49 0 73 -26q8 -9 27 -49l10 60l34 160h88l-34 -160l-18 -60q52 52 65 59q29 16 69 16q67 0 99 -47q28 -41 28 -114q0 -26 -3 -47.5t-9 -52.5
q-35 -160 -105 -233q-57 -59 -139 -59q-31 0 -53 21q-18 17 -31 49l-58 -262h-88zM310 237q5 25 11.5 60t6.5 68q0 45 -16 69.5t-55 24.5q-59 0 -97 -67q-26 -46 -44 -129q-7 -35 -11 -62.5t-4 -50.5q0 -44 16 -66.5t55 -22.5q43 0 74 32q43 44 64 144zM446 61q58 0 93 58
q28 46 49 144q5 24 9 51t4 50q0 44 -14 67q-17 28 -56 28q-59 0 -97 -66q-29 -51 -52 -156q-10 -47 -10 -82q0 -53 23 -76q18 -18 51 -18z" />
    <glyph glyph-name="ocircumflex" unicode="&#x444;" horiz-adv-x="722" 
d="M264 55q-28 -32 -54 -49q-31 -21 -62 -21q-74 0 -108 49q-28 41 -28 117q0 55 16 126q23 110 74 178q61 83 151 83q49 0 73 -26q8 -9 27 -49l10 60l34 160h88l-34 -160l-18 -60q52 52 65 59q29 16 69 16q67 0 99 -47q28 -41 28 -114q0 -26 -3 -47.5t-9 -52.5
q-35 -160 -105 -233q-57 -59 -139 -59q-31 0 -53 21q-18 17 -31 49l-58 -262h-88zM310 237q5 25 11.5 60t6.5 68q0 45 -16 69.5t-55 24.5q-59 0 -97 -67q-26 -46 -44 -129q-7 -35 -11 -62.5t-4 -50.5q0 -44 16 -66.5t55 -22.5q43 0 74 32q43 44 64 144zM446 61q58 0 93 58
q28 46 49 144q5 24 9 51t4 50q0 44 -14 67q-17 28 -56 28q-59 0 -97 -66q-29 -51 -52 -156q-10 -47 -10 -82q0 -53 23 -76q18 -18 51 -18z" />
    <glyph glyph-name="otilde" unicode="&#xf5;" horiz-adv-x="500" 
d="M425 0h-112l-88 197l-168 -197h-111l241 269l-121 254h113l82 -184l160 184h108l-231 -254z" />
    <glyph glyph-name="otilde" unicode="&#x445;" horiz-adv-x="500" 
d="M425 0h-112l-88 197l-168 -197h-111l241 269l-121 254h113l82 -184l160 184h108l-231 -254z" />
    <glyph glyph-name="odieresis" unicode="&#xf6;" 
d="M394 0h-391l111 523h88l-95 -450h245l95 450h88l-95 -450h48l-44 -207h-78z" />
    <glyph glyph-name="odieresis" unicode="&#x446;" 
d="M394 0h-391l111 523h88l-95 -450h245l95 450h88l-95 -450h48l-44 -207h-78z" />
    <glyph glyph-name="divide" unicode="&#xf7;" 
d="M336 0l50 236q-37 -12 -60 -18q-71 -18 -125 -18q-59 0 -91 20q-39 24 -39 78v15.5t4 23.5l39 186h88l-37 -173q-2 -5 -2 -11v-9q0 -29 22 -41t62 -12q43 0 103 14q20 4 51 14l46 218h88l-111 -523h-88z" />
    <glyph glyph-name="divide" unicode="&#x447;" 
d="M336 0l50 236q-37 -12 -60 -18q-71 -18 -125 -18q-59 0 -91 20q-39 24 -39 78v15.5t4 23.5l39 186h88l-37 -173q-2 -5 -2 -11v-9q0 -29 22 -41t62 -12q43 0 103 14q20 4 51 14l46 218h88l-111 -523h-88z" />
    <glyph glyph-name="oslash" unicode="&#xf8;" horiz-adv-x="722" 
d="M356 73h161l95 450h88l-111 -523h-586l111 523h88l-95 -450h161l95 450h88z" />
    <glyph glyph-name="oslash" unicode="&#x448;" horiz-adv-x="722" 
d="M356 73h161l95 450h88l-111 -523h-586l111 523h88l-95 -450h161l95 450h88z" />
    <glyph glyph-name="ugrave" unicode="&#xf9;" horiz-adv-x="722" 
d="M559 0h-556l111 523h88l-95 -450h161l95 450h88l-95 -450h161l95 450h88l-95 -450h48l-44 -207h-78z" />
    <glyph glyph-name="ugrave" unicode="&#x449;" horiz-adv-x="722" 
d="M559 0h-556l111 523h88l-95 -450h161l95 450h88l-95 -450h161l95 450h88l-95 -450h48l-44 -207h-78z" />
    <glyph glyph-name="uacute" unicode="&#xfa;" 
d="M489 154q-14 -67 -67 -107q-62 -47 -162 -47h-200l96 450h-125l15 73h213l-47 -220h112q87 0 128 -29t41 -84v-21q-3 -11 -4 -15zM164 73h111q60 0 88 19t37 64q3 14 3 24q0 29 -21.5 41t-71.5 12h-112z" />
    <glyph glyph-name="uacute" unicode="&#x44a;" 
d="M489 154q-14 -67 -67 -107q-62 -47 -162 -47h-200l96 450h-125l15 73h213l-47 -220h112q87 0 128 -29t41 -84v-21q-3 -11 -4 -15zM164 73h111q60 0 88 19t37 64q3 14 3 24q0 29 -21.5 41t-71.5 12h-112z" />
    <glyph glyph-name="ucircumflex" unicode="&#xfb;" horiz-adv-x="704" 
d="M571 0h-88l111 523h88zM433 154q-14 -67 -67 -107q-62 -47 -162 -47h-201l111 523h88l-47 -220h113q87 0 128 -28.5t41 -83.5v-22q-3 -11 -4 -15zM107 73h112q60 0 88 19t37 64q3 12 3 22q0 55 -93 55h-113z" />
    <glyph glyph-name="ucircumflex" unicode="&#x44b;" horiz-adv-x="704" 
d="M571 0h-88l111 523h88zM433 154q-14 -67 -67 -107q-62 -47 -162 -47h-201l111 523h88l-47 -220h113q87 0 128 -28.5t41 -83.5v-22q-3 -11 -4 -15zM107 73h112q60 0 88 19t37 64q3 12 3 22q0 55 -93 55h-113z" />
    <glyph glyph-name="udieresis" unicode="&#xfc;" horiz-adv-x="500" 
d="M433 154q-14 -67 -67 -107q-62 -47 -162 -47h-201l111 523h88l-47 -220h113q87 0 128 -28.5t41 -83.5v-22q-3 -11 -4 -15zM107 73h112q60 0 88 19t37 64q3 12 3 22q0 55 -93 55h-113z" />
    <glyph glyph-name="udieresis" unicode="&#x44c;" horiz-adv-x="500" 
d="M433 154q-14 -67 -67 -107q-62 -47 -162 -47h-201l111 523h88l-47 -220h113q87 0 128 -28.5t41 -83.5v-22q-3 -11 -4 -15zM107 73h112q60 0 88 19t37 64q3 12 3 22q0 55 -93 55h-113z" />
    <glyph glyph-name="yacute" unicode="&#xfd;" horiz-adv-x="546" 
d="M406 303q4 19 4 40q0 53 -28 84q-31 35 -92 35q-58 0 -105 -40q-36 -30 -57 -75h-82q26 67 87 120q78 68 173 68q101 0 153 -63q44 -54 44 -140q0 -14 -1.5 -30t-5.5 -35q-28 -129 -107 -203q-84 -79 -207 -79q-87 0 -137 68q-39 53 -39 111h87q0 -31 30 -65
q34 -38 74 -38q77 0 128.5 46.5t68.5 126.5h-247l14 69h245z" />
    <glyph glyph-name="yacute" unicode="&#x44d;" horiz-adv-x="546" 
d="M406 303q4 19 4 40q0 53 -28 84q-31 35 -92 35q-58 0 -105 -40q-36 -30 -57 -75h-82q26 67 87 120q78 68 173 68q101 0 153 -63q44 -54 44 -140q0 -14 -1.5 -30t-5.5 -35q-28 -129 -107 -203q-84 -79 -207 -79q-87 0 -137 68q-39 53 -39 111h87q0 -31 30 -65
q34 -38 74 -38q77 0 128.5 46.5t68.5 126.5h-247l14 69h245z" />
    <glyph glyph-name="thorn" unicode="&#xfe;" horiz-adv-x="750" 
d="M231 237h-90l-50 -237h-88l111 523h88l-46 -216h92q34 99 99 160q76 71 180 71q95 0 142 -58q42 -51 42 -138q0 -39 -9 -80q-25 -114 -94 -189q-81 -87 -198 -87q-95 0 -142 58q-41 51 -41 139v22.5t4 31.5zM426 62q83 0 134 73q34 49 51 127q2 12 5 33.5t3 36.5
q0 57 -21 89q-27 41 -87 41q-83 0 -133 -73q-35 -50 -51 -127q-6 -25 -7.5 -39.5t-1.5 -36.5q0 -54 21 -85q27 -39 87 -39z" />
    <glyph glyph-name="thorn" unicode="&#x44e;" horiz-adv-x="750" 
d="M231 237h-90l-50 -237h-88l111 523h88l-46 -216h92q34 99 99 160q76 71 180 71q95 0 142 -58q42 -51 42 -138q0 -39 -9 -80q-25 -114 -94 -189q-81 -87 -198 -87q-95 0 -142 58q-41 51 -41 139v22.5t4 31.5zM426 62q83 0 134 73q34 49 51 127q2 12 5 33.5t3 36.5
q0 57 -21 89q-27 41 -87 41q-83 0 -133 -73q-35 -50 -51 -127q-6 -25 -7.5 -39.5t-1.5 -36.5q0 -54 21 -85q27 -39 87 -39z" />
    <glyph glyph-name="ydieresis" unicode="&#xff;" 
d="M-25 0l209 222q-37 0 -68 30q-35 34 -35 87q0 9 4 31q16 74 74.5 113.5t149.5 39.5h223l-111 -523h-88l47 220h-95l-202 -220h-108zM429 450h-135q-98 0 -115 -80q-3 -12 -3 -23q0 -57 84 -57h135z" />
    <glyph glyph-name="ydieresis" unicode="&#x44f;" 
d="M-25 0l209 222q-37 0 -68 30q-35 34 -35 87q0 9 4 31q16 74 74.5 113.5t149.5 39.5h223l-111 -523h-88l47 220h-95l-202 -220h-108zM429 450h-135q-98 0 -115 -80q-3 -12 -3 -23q0 -57 84 -57h135z" />
    </font>
</defs>
</svg>
